<svg width="134" height="27" viewBox="0 0 134 27" fill="none" xmlns="http://www.w3.org/2000/svg">
<path d="M5.029 10.2913C5.67558 9.40891 6.56165 8.69193 7.68718 8.14042C8.83667 7.5889 10.1418 7.31314 11.6026 7.31314C13.3029 7.31314 14.8355 7.6992 16.2006 8.47133C17.5895 9.24345 18.6791 10.3465 19.4694 11.7804C20.2836 13.1923 20.6907 14.8359 20.6907 16.711C20.6907 18.5862 20.2836 20.2518 19.4694 21.7078C18.6791 23.1417 17.5895 24.2558 16.2006 25.05C14.8355 25.8442 13.3029 26.2413 11.6026 26.2413C10.1179 26.2413 8.81272 25.9765 7.68718 25.4471C6.58559 24.8956 5.69953 24.1896 5.029 23.3292V25.9434H0V1.45601H5.029V10.2913ZM15.554 16.711C15.554 15.608 15.3025 14.6594 14.7996 13.8652C14.3207 13.0489 13.6741 12.4312 12.8599 12.0121C12.074 11.5939 11.181 11.3769 10.2735 11.3833C9.36352 11.3833 8.5014 11.604 7.68718 12.0452C6.89691 12.4643 6.25033 13.082 5.74743 13.8983C5.26848 14.7145 5.029 15.6742 5.029 16.7772C5.029 17.8802 5.26848 18.8399 5.74743 19.6561C6.25033 20.4724 6.89691 21.1011 7.68718 21.5423C8.5014 21.9615 9.36352 22.1711 10.2735 22.1711C11.2075 22.1711 12.0696 21.9504 12.8599 21.5092C13.6741 21.068 14.3207 20.4393 14.7996 19.623C15.3025 18.8068 15.554 17.8361 15.554 16.711ZM26.8952 5.42694C26.0091 5.42694 25.2667 5.17325 24.668 4.66585C24.0933 4.13639 23.8059 3.4856 23.8059 2.71347C23.8059 1.94135 24.0933 1.30158 24.668 0.794187C25.2667 0.264729 26.0091 0 26.8952 0C27.7812 0 28.5116 0.264729 29.0864 0.794187C29.6851 1.30158 29.9844 1.94135 29.9844 2.71347C29.9844 3.4856 29.6851 4.13639 29.0864 4.66585C28.5116 5.17325 27.7812 5.42694 26.8952 5.42694ZM29.3737 7.61096V25.9434H24.3447V7.61096H29.3737ZM46.1251 25.9434L39.3719 18.1339V25.9434H34.3429V1.45601H39.3719V15.3874L46.0533 7.61096H52.591L43.8261 16.8103L52.6628 25.9434H46.1251ZM53.029 16.7772C53.029 14.88 53.4481 13.2254 54.2862 11.8135C55.1244 10.3796 56.2859 9.27654 57.7706 8.50442C59.2554 7.71023 60.9557 7.31314 62.8715 7.31314C65.3381 7.31314 67.3736 7.88672 68.9781 9.03388C70.6065 10.159 71.6962 11.7473 72.247 13.799H66.8238C66.5365 13.0048 66.0455 12.3871 65.3511 11.9459C64.6805 11.4826 63.8423 11.251 62.8365 11.251C61.3997 11.251 60.2622 11.7363 59.424 12.707C58.5858 13.6556 58.1668 15.0123 58.1668 16.7772C58.1668 18.52 58.5858 19.8767 59.424 20.8474C60.2622 21.796 61.3997 22.2703 62.8365 22.2703C64.8721 22.2703 66.2012 21.432 66.8238 19.7554H72.248C71.6972 21.7409 70.6075 23.3182 68.9791 24.4874C67.3507 25.6567 65.3151 26.2413 62.8725 26.2413C60.9567 26.2413 59.2564 25.8552 57.7716 25.0831C56.2986 24.3001 55.092 23.1541 54.2872 21.774C53.4491 20.34 53.029 18.6744 53.029 16.7772ZM79.9631 10.4568C80.5797 9.51324 81.4445 8.72797 82.4776 8.17351C83.5313 7.62199 84.7287 7.34623 86.0697 7.34623V12.2106H84.7406C83.1601 12.2106 81.9627 12.5526 81.1485 13.2364C80.3582 13.9203 79.9631 15.1116 79.9631 16.8103V25.9434H74.9341V7.61096H79.9631V10.4568ZM101.49 23.3292C100.939 24.1675 100.041 24.8735 98.7959 25.4471C97.5506 25.9986 96.2095 26.2744 94.7727 26.2744C93.5274 26.2744 92.4019 26.0427 91.3961 25.5794C90.3903 25.1162 89.6 24.4764 89.0253 23.6602C88.4505 22.8439 88.1631 21.9063 88.1631 20.8474C88.1631 19.1487 88.8456 17.7589 90.2107 16.6779C91.5996 15.5969 93.6711 15.0565 96.4251 15.0565H101.49C101.442 13.8872 101.071 12.9607 100.376 12.2768C99.7059 11.5709 98.7719 11.2179 97.5746 11.2179C96.5209 11.2179 95.6468 11.4826 94.9523 12.0121C94.2578 12.5195 93.8148 13.2364 93.6232 14.163H88.5942C88.8337 12.8394 89.3485 11.6591 90.1388 10.6223C90.946 9.56885 92.0349 8.7253 93.2999 8.17351C94.617 7.57787 96.0898 7.28005 97.7182 7.28005C99.3946 7.28005 100.903 7.59993 102.244 8.23969C103.576 8.85086 104.687 9.80499 105.441 10.9863C106.208 12.1775 106.591 13.5784 106.591 15.1888V25.9434H101.49V23.3292ZM96.2455 22.5351C97.0836 22.5351 97.8978 22.3696 98.6881 22.0387C99.5023 21.7078 100.173 21.2114 100.7 20.5496C101.227 19.8878 101.49 19.1046 101.49 18.2001V18.0678H96.7124C95.563 18.0678 94.7008 18.2773 94.1261 18.6965C93.5753 19.1156 93.2999 19.6672 93.2999 20.351C93.2999 21.0129 93.5514 21.5423 94.0543 21.9394C94.5811 22.3365 95.3115 22.5351 96.2455 22.5351ZM117.197 11.4164V25.9434H112.096V11.4164H109.833V7.61096H112.096V6.68441C112.096 4.43421 112.79 2.77965 114.179 1.72074C115.568 0.661823 117.664 0.165456 120.465 0.231638V4.13639C119.244 4.11433 118.394 4.30185 117.915 4.69894C117.436 5.09603 117.197 5.81301 117.197 6.84986V7.61096H123.732V3.07747H128.797V7.61096H133.252V11.4164H128.797V20.2849C128.797 20.9026 128.953 21.3548 129.264 21.6416C129.6 21.9063 130.15 22.0387 130.917 22.0387H133.252V25.9434H130.09C125.852 25.9434 123.732 24.0462 123.732 20.2518V11.4164H117.197Z" fill="white"/>
</svg>
