<svg xmlns="http://www.w3.org/2000/svg" width="27" height="23" fill="none"><path fill="url(#a)" d="M19.835 17.773c-1.785 0-2.909.56-3.9 1.067-.86.44-1.56.8-2.711.8-1.19 0-1.852-.333-2.711-.8-.992-.507-2.076-1.067-3.901-1.067-1.825 0-2.91.56-3.901 1.067-.569.293-1.071.547-1.68.693C.436 19.667 0 20.147 0 20.747v.133c0 .8.74 1.373 1.508 1.213.978-.2 1.719-.573 2.393-.92.86-.44 1.547-.8 2.71-.8 1.165 0 1.852.334 2.712.8.992.507 2.076 1.067 3.9 1.067 1.826 0 2.91-.56 3.902-1.067.86-.44 1.56-.8 2.71-.8 1.19 0 1.852.334 2.711.8.688.347 1.428.734 2.42.934a1.234 1.234 0 0 0 1.022-.258 1.252 1.252 0 0 0 .46-.956v-.12c0-.613-.45-1.093-1.045-1.226-.609-.134-1.098-.387-1.666-.694-.992-.52-2.116-1.08-3.901-1.08Zm0-5.933c-1.785 0-2.909.573-3.9 1.067-.86.426-1.56.8-2.711.8-1.19 0-1.852-.334-2.711-.8-.992-.507-2.076-1.067-3.901-1.067-1.825 0-2.91.573-3.901 1.067-.569.28-1.071.546-1.693.693C.436 13.733 0 14.213 0 14.813v.134a1.248 1.248 0 0 0 .454.962 1.226 1.226 0 0 0 1.027.251c.992-.2 1.732-.587 2.42-.92.86-.467 1.52-.8 2.71-.8 1.191 0 1.852.333 2.712.8.992.507 2.076 1.067 3.9 1.067 1.826 0 2.91-.574 3.902-1.067.86-.467 1.52-.8 2.71-.8s1.852.333 2.711.8c.688.347 1.428.733 2.42.933a1.232 1.232 0 0 0 1.027-.261 1.252 1.252 0 0 0 .454-.965v-.12c0-.614-.45-1.094-1.044-1.227-.609-.133-1.098-.387-1.666-.693-.992-.507-2.116-1.067-3.901-1.067Zm3.901-10.773C22.745.56 21.648 0 19.837 0c-1.812 0-2.91.56-3.901 1.067-.86.426-1.56.8-2.711.8-1.19 0-1.852-.334-2.711-.8C9.52.573 8.437 0 6.612 0 4.787 0 3.702.56 2.71 1.067c-.569.293-1.071.546-1.68.693C.436 1.893 0 2.373 0 2.973v.094c0 .8.714 1.386 1.481 1.226.992-.2 1.732-.586 2.42-.92.86-.44 1.547-.8 2.71-.8 1.165 0 1.852.334 2.712.8.992.507 2.076 1.067 3.9 1.067 1.826 0 2.91-.573 3.902-1.067.86-.426 1.56-.8 2.71-.8 1.19 0 1.852.334 2.711.8.688.347 1.428.734 2.42.934a1.234 1.234 0 0 0 1.027-.262 1.252 1.252 0 0 0 .454-.965v-.12c0-.613-.45-1.093-1.044-1.227-.609-.133-1.098-.373-1.666-.666Zm-3.9 4.84c-1.786 0-2.91.573-3.901 1.066-.86.467-1.521.8-2.711.8s-1.852-.333-2.711-.8c-.992-.506-2.076-1.066-3.901-1.066-1.825 0-2.91.573-3.901 1.066-.569.307-1.058.56-1.666.694C.45 7.8 0 8.28 0 8.893v.12a1.249 1.249 0 0 0 .454.962 1.226 1.226 0 0 0 1.027.252c.992-.2 1.732-.587 2.42-.92.86-.427 1.56-.8 2.71-.8 1.151 0 1.852.333 2.712.8.992.506 2.076 1.066 3.9 1.066 1.826 0 2.91-.573 3.902-1.066.86-.427 1.56-.8 2.71-.8 1.19 0 1.852.333 2.711.8.688.346 1.428.733 2.42.933a1.234 1.234 0 0 0 1.022-.257 1.25 1.25 0 0 0 .46-.956v-.12c0-.614-.45-1.094-1.045-1.227-.609-.133-1.098-.387-1.666-.693-.992-.52-2.116-1.08-3.901-1.08Z"/><defs><linearGradient id="a" x1="13.224" x2="13.224" y1="0" y2="22.24" gradientUnits="userSpaceOnUse"><stop stop-color="#FB0"/><stop offset="1" stop-color="#F2A60C"/></linearGradient></defs></svg>