<svg xmlns="http://www.w3.org/2000/svg" width="14" height="10" fill="none"><path fill="#9C9C9C" d="M11.334 1.667c0-.734-.6-1.334-1.333-1.334H8.668c-.367 0-.667.3-.667.666 0 .368.3.668.667.668h1.333v1.766l-2.32 2.9H5.334V3.667c0-.366-.3-.667-.666-.667H2.667A2.666 2.666 0 0 0 0 5.666V7c0 .368.3.668.667.668h.666c0 1.107.894 2 2 2 1.107 0 2-.893 2-2H7.68c.407 0 .787-.188 1.04-.5l2.32-2.9c.193-.24.293-.535.293-.834l.001-1.766Zm-8 6.667a.669.669 0 0 1-.666-.667h1.333c0 .367-.3.667-.667.667Z"/><path fill="#9C9C9C" d="M2.667.667h2c.367 0 .667.3.667.666 0 .367-.3.667-.666.667H2.667A.669.669 0 0 1 2 1.333c0-.366.3-.666.667-.666Zm8.668 4.665c-1.107 0-2 .894-2 2 0 1.108.893 2 2 2s2-.893 2-2c0-1.106-.893-2-2-2Zm0 2.668a.67.67 0 0 1-.667-.668c0-.365.3-.665.667-.665.367 0 .667.3.667.665 0 .367-.3.668-.667.668Z"/></svg>