<svg xmlns="http://www.w3.org/2000/svg" width="27" height="22" fill="none"><path fill="url(#a)" d="M23.09 8.026a1.34 1.34 0 0 0-.093 1.333c.328.772.56 1.583.688 2.413.34 2.147.022 4.348-.913 6.307a1.33 1.33 0 0 1-1.176.707H4.867a1.314 1.314 0 0 1-1.177-.72A10.743 10.743 0 0 1 4.577 7.14a10.596 10.596 0 0 1 4.386-3.574 10.5 10.5 0 0 1 5.584-.795c.96.114 1.9.366 2.79.747a1.313 1.313 0 0 0 1.323-.093 1.33 1.33 0 0 0 .589-1.242 1.34 1.34 0 0 0-.814-1.105 13.123 13.123 0 0 0-8.102-.757 13.202 13.202 0 0 0-7.007 4.17 13.424 13.424 0 0 0-1.54 15.534c.231.403.563.738.962.972a2.63 2.63 0 0 0 1.313.361h18.315c.466.002.924-.12 1.328-.355.404-.234.74-.571.973-.978a13.432 13.432 0 0 0 .727-11.853 1.33 1.33 0 0 0-1.114-.765 1.313 1.313 0 0 0-1.2.618Z"/><path fill="url(#b)" d="M11.36 11.48a2.68 2.68 0 0 0-.573 2.907 2.669 2.669 0 0 0 1.432 1.444 2.627 2.627 0 0 0 2.884-.579l7.484-11.32-11.226 7.547Z"/><defs><linearGradient id="a" x1="13.223" x2="13.223" y1="0" y2="21.359" gradientUnits="userSpaceOnUse"><stop stop-color="#FB0"/><stop offset="1" stop-color="#F2A60C"/></linearGradient><linearGradient id="b" x1="13.223" x2="13.223" y1="0" y2="21.359" gradientUnits="userSpaceOnUse"><stop stop-color="#FB0"/><stop offset="1" stop-color="#F2A60C"/></linearGradient></defs></svg>