<svg xmlns="http://www.w3.org/2000/svg" width="30" height="30" fill="none"><path fill="url(#a)" d="M14.546 9.333c-2.922 0-5.29 2.387-5.29 5.334 0 2.946 2.368 5.333 5.29 5.333s5.29-2.387 5.29-5.333c0-2.947-2.367-5.334-5.29-5.334Zm11.822 4a12.032 12.032 0 0 0-3.41-7.148 11.854 11.854 0 0 0-7.09-3.438V1.333C15.868.6 15.273 0 14.546 0c-.727 0-1.322.6-1.322 1.333v1.414a11.854 11.854 0 0 0-7.09 3.438 12.032 12.032 0 0 0-3.41 7.148H1.322c-.727 0-1.322.6-1.322 1.334C0 15.4.595 16 1.322 16h1.402a12.032 12.032 0 0 0 3.41 7.148 11.854 11.854 0 0 0 7.09 3.439V28c0 .733.595 1.333 1.322 1.333.727 0 1.322-.6 1.322-1.333v-1.413a11.854 11.854 0 0 0 7.09-3.439A12.032 12.032 0 0 0 26.368 16h1.402c.727 0 1.322-.6 1.322-1.333 0-.734-.595-1.334-1.322-1.334h-1.402ZM14.546 24c-5.118 0-9.257-4.173-9.257-9.333s4.14-9.334 9.257-9.334c5.118 0 9.257 4.174 9.257 9.334 0 5.16-4.14 9.333-9.257 9.333Z"/><defs><linearGradient id="a" x1="14.546" x2="14.546" y1="0" y2="29.333" gradientUnits="userSpaceOnUse"><stop stop-color="#FB0"/><stop offset="1" stop-color="#F2A60C"/></linearGradient></defs></svg>