<svg xmlns="http://www.w3.org/2000/svg" width="32" height="30" fill="none"><path fill="url(#a)" d="M25.125 8h-1.084l-2.248-6.24a2.675 2.675 0 0 0-.97-1.274A2.64 2.64 0 0 0 19.308 0H17.19c-.727 0-1.323.6-1.323 1.333 0 .734.595 1.334 1.323 1.334h2.116L21.237 8h-6.36L14.4 6.667h.119c.727 0 1.322-.6 1.322-1.334C15.842 4.6 15.247 4 14.52 4h-3.941c-.727 0-1.322.6-1.322 1.333 0 .734.595 1.334 1.322 1.334h.992l2.406 6.666h-.886c-.581-2.973-3.054-5.173-6.149-5.32C3.24 7.827 0 10.933 0 14.667c0 3.733 2.91 6.666 6.612 6.666 3.253 0 5.884-2.253 6.48-5.333h5.553c.582 2.973 3.055 5.173 6.15 5.32 3.702.173 6.942-2.92 6.942-6.667 0-3.72-2.91-6.653-6.612-6.653Zm-17.19 8h2.406c-.555 1.64-2.116 2.773-3.994 2.653-1.97-.12-3.61-1.8-3.702-3.8-.093-2.333 1.68-4.186 3.967-4.186 1.759 0 3.2 1.106 3.729 2.666H7.934c-.727 0-1.322.6-1.322 1.334 0 .733.595 1.333 1.322 1.333Zm10.71-2.667h-1.85l-.966-2.666h4.006a6.336 6.336 0 0 0-1.19 2.666Zm6.321 5.334c-2.036-.08-3.755-1.827-3.808-3.894a3.99 3.99 0 0 1 1.388-3.146l.82 2.266a1.316 1.316 0 0 0 1.693.8 1.333 1.333 0 0 0 .793-1.706l-.833-2.307.013-.013a3.896 3.896 0 0 1 2.878 1.125 3.961 3.961 0 0 1 1.182 2.875c0 2.293-1.825 4.08-4.126 4Zm-10.42 6.666h-5.29l7.935 4v-2.666h5.29l-7.935-4v2.666Z"/><defs><linearGradient id="a" x1="15.868" x2="15.868" y1="0" y2="29.333" gradientUnits="userSpaceOnUse"><stop stop-color="#FB0"/><stop offset="1" stop-color="#F2A60C"/></linearGradient></defs></svg>