<svg xmlns="http://www.w3.org/2000/svg" width="22" height="28" fill="none"><path fill="url(#a)" d="M18.513 9.333h-1.322V6.667C17.19 2.987 14.229 0 10.579 0S3.967 2.987 3.967 6.667v2.666H2.645C1.19 9.333 0 10.533 0 12v13.333C0 26.8 1.19 28 2.645 28h15.868c1.455 0 2.645-1.2 2.645-2.667V12c0-1.467-1.19-2.667-2.645-2.667Zm-7.934 12c-1.455 0-2.645-1.2-2.645-2.666C7.934 17.2 9.124 16 10.58 16s2.645 1.2 2.645 2.667c0 1.466-1.19 2.666-2.645 2.666Zm-3.967-12V6.667c0-2.214 1.772-4 3.967-4 2.195 0 3.967 1.786 3.967 4v2.666H6.612Z"/><defs><linearGradient id="a" x1="10.579" x2="10.579" y1="0" y2="28" gradientUnits="userSpaceOnUse"><stop stop-color="#FB0"/><stop offset="1" stop-color="#F2A60C"/></linearGradient></defs></svg>