<svg xmlns="http://www.w3.org/2000/svg" width="22" height="22" fill="none"><path fill="url(#a)" d="M2.711 5.35A9.374 9.374 0 0 0 0 11.93a9.375 9.375 0 0 0 2.685 6.593c1.943-4.534 5.408-8.32 9.732-10.574A21.309 21.309 0 0 0 5.29 20.376a9.206 9.206 0 0 0 10.512-1.827c3.954-3.986 5.065-14.853 5.303-17.84a.657.657 0 0 0-.423-.67.642.642 0 0 0-.278-.036c-2.962.24-13.74 1.36-17.693 5.346Z"/><defs><linearGradient id="a" x1="10.554" x2="10.554" y1="0" y2="21.275" gradientUnits="userSpaceOnUse"><stop stop-color="#FB0"/><stop offset="1" stop-color="#F2A60C"/></linearGradient></defs></svg>