<svg xmlns="http://www.w3.org/2000/svg" width="16" height="16" fill="none"><path fill="url(#a)" d="m14.025 10.717-2.117-.242a1.657 1.657 0 0 0-1.365.475l-1.535 1.533a12.538 12.538 0 0 1-5.49-5.491l1.54-1.542c.36-.358.534-.858.475-1.367l-.24-2.1A1.668 1.668 0 0 0 3.632.508h-1.44C1.25.508.466 1.292.524 2.233c.442 7.117 6.133 12.8 13.242 13.242.942.058 1.726-.725 1.726-1.667v-1.441a1.652 1.652 0 0 0-1.468-1.65Z"/><defs><linearGradient id="a" x1="8.007" x2="8.007" y1=".508" y2="15.478" gradientUnits="userSpaceOnUse"><stop stop-color="#FB0"/><stop offset="1" stop-color="#F2A60C"/></linearGradient></defs></svg>