<svg xmlns="http://www.w3.org/2000/svg" width="141" height="52" fill="none"><path fill="#9C9C9C" d="M11.84 31.84v7.123c0 3.561-1.118 4.846-2.893 4.846-1.776 0-2.892-1.285-2.892-4.846V12.038c0-3.562 1.117-4.916 2.893-4.916 1.775 0 2.891 1.354 2.891 4.916v5.342h5.277v-4.844C17.116 4.558 14.274 0 8.796 0 3.314 0 .473 4.558.473 12.536v25.929c0 7.978 2.84 12.537 8.321 12.537 5.48 0 8.321-4.56 8.321-12.538v-6.623H11.84ZM32.895.57l5.683 49.862h-5.632l-.965-9.046h-6.849l-.964 9.046h-5.125L24.727.57h8.169Zm-4.414 8.832-2.639 25.217h5.378L28.584 9.401h-.101l-.001.001Zm30.037 41.03h-5.683c-.304-1.282-.508-2.067-.508-6.126V36.47c0-4.63-1.116-6.34-3.653-6.34h-1.928v20.302h-5.58V.57h8.422c5.784 0 8.27 3.775 8.27 11.469v3.917c0 5.128-1.168 8.405-3.653 10.044 2.79 1.78 3.703 5.483 3.703 10.685v7.692c0 2.423.052 4.203.61 6.055Zm-9.082-42.74h-2.69v15.316h2.182c2.08 0 3.348-1.281 3.348-5.27v-4.916c0-3.561-.861-5.13-2.84-5.13ZM75.528.57l5.683 49.862h-5.632l-.963-9.046h-6.85l-.964 9.046h-5.125L67.36.57h8.168Zm-4.414 8.832-2.638 25.217h5.378L71.216 9.401h-.102v.001ZM86.374.57h-5.632l5.48 49.862h8.32L100.023.57h-5.124l-4.212 40.672h-.101L86.375.57Zm27.031 0 5.682 49.862h-5.632l-.963-9.046h-6.85l-.965 9.046h-5.124L105.236.57h8.169Zm-4.414 8.832-2.639 25.217h5.379l-2.639-25.218h-.101v.001Zm25.4 41.03h5.734V.57h-4.973v29.845h-.102L129.419.57h-7.002v49.862h5.023V14.316h.101l6.85 36.116Z"/></svg>