<svg xmlns="http://www.w3.org/2000/svg" width="134" height="27" fill="none"><path fill="#fff" d="M5.029 10.291c.647-.882 1.533-1.6 2.658-2.15 1.15-.552 2.455-.828 3.916-.828 1.7 0 3.232.386 4.598 1.158 1.389.772 2.478 1.876 3.268 3.31.815 1.411 1.222 3.055 1.222 4.93 0 1.875-.407 3.54-1.222 4.997-.79 1.434-1.88 2.548-3.268 3.342-1.366.794-2.898 1.191-4.598 1.191-1.485 0-2.79-.264-3.916-.794C6.586 24.896 5.7 24.19 5.03 23.33v2.614H0V1.456h5.029v8.835Zm10.525 6.42c0-1.103-.252-2.052-.754-2.846a4.72 4.72 0 0 0-1.94-1.853 5.434 5.434 0 0 0-2.586-.629c-.91 0-1.773.221-2.587.662-.79.42-1.437 1.037-1.94 1.853-.479.816-.718 1.776-.718 2.88 0 1.102.24 2.062.718 2.878.503.816 1.15 1.445 1.94 1.886.814.42 1.677.63 2.587.63.934 0 1.796-.222 2.586-.663a4.948 4.948 0 0 0 1.94-1.886c.502-.816.754-1.787.754-2.912ZM26.895 5.427c-.886 0-1.628-.254-2.227-.761-.575-.53-.862-1.18-.862-1.953 0-.772.287-1.411.862-1.919C25.267.264 26.009 0 26.895 0c.886 0 1.617.265 2.191.794.6.508.898 1.147.898 1.92 0 .772-.299 1.422-.898 1.952-.574.507-1.305.76-2.19.76Zm2.479 2.184v18.332h-5.03V7.611h5.03Zm16.751 18.332-6.753-7.81v7.81h-5.03V1.456h5.03v13.931l6.681-7.776h6.538l-8.765 9.2 8.837 9.132h-6.538Zm6.904-9.166c0-1.897.42-3.552 1.257-4.964a8.494 8.494 0 0 1 3.485-3.309c1.484-.794 3.185-1.19 5.1-1.19 2.467 0 4.503.573 6.107 1.72 1.629 1.125 2.718 2.713 3.269 4.765h-5.423a3.57 3.57 0 0 0-1.473-1.853c-.67-.463-1.509-.695-2.514-.695-1.437 0-2.575.485-3.413 1.456-.838.949-1.257 2.305-1.257 4.07 0 1.743.419 3.1 1.257 4.07.838.949 1.976 1.423 3.413 1.423 2.035 0 3.364-.838 3.987-2.515h5.424c-.55 1.986-1.64 3.563-3.269 4.732-1.628 1.17-3.664 1.754-6.106 1.754-1.916 0-3.617-.386-5.101-1.158-1.473-.783-2.68-1.929-3.485-3.309-.838-1.434-1.258-3.1-1.258-4.997Zm26.934-6.32a6.875 6.875 0 0 1 2.515-2.283c1.053-.552 2.25-.828 3.592-.828v4.865h-1.33c-1.58 0-2.777.342-3.591 1.025-.79.684-1.186 1.876-1.186 3.574v9.133h-5.029V7.611h5.03v2.846Zm21.527 12.872c-.551.838-1.449 1.544-2.694 2.118-1.245.552-2.587.827-4.023.827-1.246 0-2.371-.231-3.377-.695-1.006-.463-1.796-1.103-2.37-1.919-.575-.816-.863-1.754-.863-2.813 0-1.698.683-3.088 2.048-4.17 1.389-1.08 3.46-1.62 6.214-1.62h5.065c-.048-1.17-.419-2.096-1.114-2.78-.67-.706-1.604-1.06-2.801-1.06-1.054 0-1.928.266-2.623.795-.694.508-1.137 1.224-1.329 2.151h-5.029a8.144 8.144 0 0 1 1.545-3.54 8 8 0 0 1 3.16-2.45c1.318-.595 2.79-.893 4.42-.893 1.676 0 3.184.32 4.525.96 1.332.61 2.443 1.565 3.197 2.746.767 1.191 1.15 2.592 1.15 4.203v10.754h-5.101V23.33Zm-5.244-.794c.838 0 1.652-.165 2.442-.496a4.862 4.862 0 0 0 2.012-1.49c.527-.661.79-1.444.79-2.349v-.132h-4.778c-1.149 0-2.011.21-2.586.628-.55.42-.826.971-.826 1.655 0 .662.251 1.191.754 1.588.527.398 1.257.596 2.192.596Zm20.951-11.119v14.527h-5.101V11.416h-2.263V7.611h2.263v-.927c0-2.25.694-3.904 2.083-4.963 1.389-1.06 3.485-1.556 6.286-1.49v3.905c-1.221-.022-2.071.166-2.55.563-.479.397-.718 1.114-.718 2.15v.762h6.535V3.077h5.065v4.534h4.455v3.805h-4.455v8.869c0 .618.156 1.07.467 1.357.336.264.886.397 1.653.397h2.335v3.904h-3.162c-4.238 0-6.358-1.897-6.358-5.691v-8.836h-6.535Z"/></svg>