<svg width="360" height="38" viewBox="0 0 360 38" fill="none" xmlns="http://www.w3.org/2000/svg">
<path d="M8.112 5.31997V3.39997H19.536L29.088 35.08H31.488V37H19.104V35.08H21.888L20.112 29.176H7.056L5.328 35.08H8.112V37H0V35.08H2.4L11.376 5.31997H8.112ZM13.536 7.38397L7.728 27.016H19.44L13.536 7.38397Z" fill="#141414"/>
<path d="M32.94 13.864C34.316 13.288 35.788 13 37.356 13C38.956 13 40.268 13.192 41.292 13.576C42.348 13.96 43.436 14.568 44.556 15.4C45.708 14.248 46.876 13.448 48.06 13C49.276 12.52 50.7 12.28 52.332 12.28C55.596 12.28 57.772 13.528 58.86 16.024C60.108 14.648 61.356 13.688 62.604 13.144C63.884 12.568 65.532 12.28 67.548 12.28C69.596 12.28 71.244 12.92 72.492 14.2C73.772 15.448 74.412 17.16 74.412 19.336V31.672C74.412 32.536 74.62 33.224 75.036 33.736C75.452 34.216 76.092 34.456 76.956 34.456C77.82 34.456 78.812 33.992 79.932 33.064L80.796 34.216C78.236 36.552 75.676 37.72 73.116 37.72C69.18 37.72 67.212 35.368 67.212 30.664V18.328C67.212 17.336 66.924 16.568 66.348 16.024C65.772 15.48 64.972 15.208 63.948 15.208C62.956 15.208 61.964 15.64 60.972 16.504C60.012 17.368 59.532 18.488 59.532 19.864V37H52.332V18.328C52.332 17.336 52.044 16.568 51.468 16.024C50.892 15.48 50.092 15.208 49.068 15.208C48.076 15.208 47.084 15.64 46.092 16.504C45.132 17.368 44.652 18.488 44.652 19.864V37H37.452V14.92C36.012 14.92 34.732 15.16 33.612 15.64L32.94 13.864Z" fill="#141414"/>
<path d="M108.484 13V31.672C108.484 32.536 108.692 33.224 109.108 33.736C109.524 34.216 110.164 34.456 111.028 34.456C111.892 34.456 112.884 33.992 114.004 33.064L114.868 34.216C112.308 36.552 109.748 37.72 107.188 37.72C104.148 37.72 102.276 36.296 101.572 33.448C99.9081 36.296 97.4601 37.72 94.2281 37.72C90.5481 37.72 87.7481 36.536 85.8281 34.168C83.9081 31.768 82.9481 28.728 82.9481 25.048C82.9481 21.336 83.9721 18.28 86.0201 15.88C88.1001 13.48 90.9961 12.28 94.7081 12.28C97.5561 12.28 99.7481 13.416 101.284 15.688V13H108.484ZM91.7321 17.704C90.8361 19.496 90.3881 21.928 90.3881 25C90.3881 28.072 90.8361 30.504 91.7321 32.296C92.6281 34.088 93.9881 34.984 95.8121 34.984C97.6681 34.984 99.0761 34.088 100.036 32.296C101.028 30.472 101.524 28.04 101.524 25C101.524 21.96 101.028 19.544 100.036 17.752C99.0761 15.928 97.6681 15.016 95.8121 15.016C93.9881 15.016 92.6281 15.912 91.7321 17.704Z" fill="#141414"/>
<path d="M119.858 13C122.482 13 124.85 13.8 126.962 15.4C128.178 14.248 129.426 13.448 130.706 13C131.986 12.52 133.618 12.28 135.602 12.28C137.618 12.28 139.25 12.92 140.498 14.2C141.778 15.448 142.418 17.16 142.418 19.336V31.672C142.418 32.536 142.626 33.224 143.042 33.736C143.458 34.216 144.098 34.456 144.962 34.456C145.826 34.456 146.818 33.992 147.938 33.064L148.802 34.216C146.242 36.552 143.682 37.72 141.122 37.72C137.186 37.72 135.218 35.368 135.218 30.664V18.328C135.218 17.336 134.914 16.568 134.306 16.024C133.698 15.48 132.85 15.208 131.762 15.208C130.706 15.208 129.65 15.64 128.594 16.504C127.57 17.368 127.058 18.488 127.058 19.864V37H119.858V14.92C118.418 14.92 117.138 15.16 116.018 15.64L115.346 13.864C116.722 13.288 118.226 13 119.858 13Z" fill="#141414"/>
<path d="M176.5 3.20797V31.672C176.5 32.536 176.708 33.224 177.124 33.736C177.54 34.216 178.132 34.456 178.9 34.456C179.7 34.456 180.66 33.992 181.78 33.064L182.884 34.216C180.324 36.552 177.764 37.72 175.204 37.72C172.164 37.72 170.292 36.296 169.588 33.448C167.924 36.296 165.476 37.72 162.244 37.72C158.564 37.72 155.764 36.536 153.844 34.168C151.924 31.768 150.964 28.728 150.964 25.048C150.964 21.336 151.988 18.28 154.036 15.88C156.116 13.48 159.012 12.28 162.724 12.28C165.572 12.28 167.764 13.416 169.3 15.688V2.58397C167.54 3.03197 166.196 3.81597 165.268 4.93597L163.972 3.44797C164.9 2.48797 166.068 1.71997 167.476 1.14397C168.916 0.567968 170.324 0.279968 171.7 0.279968C173.108 0.279968 174.26 0.567968 175.156 1.14397C176.052 1.68797 176.5 2.37597 176.5 3.20797ZM159.748 17.704C158.852 19.496 158.404 21.928 158.404 25C158.404 28.072 158.852 30.504 159.748 32.296C160.644 34.088 162.004 34.984 163.828 34.984C165.684 34.984 167.092 34.088 168.052 32.296C169.044 30.472 169.54 28.04 169.54 25C169.54 21.96 169.044 19.544 168.052 17.752C167.092 15.928 165.684 15.016 163.828 15.016C162.004 15.016 160.644 15.912 159.748 17.704Z" fill="#141414"/>
<path d="M210.578 13V31.672C210.578 32.536 210.786 33.224 211.202 33.736C211.618 34.216 212.258 34.456 213.122 34.456C213.986 34.456 214.978 33.992 216.098 33.064L216.962 34.216C214.402 36.552 211.842 37.72 209.282 37.72C206.242 37.72 204.37 36.296 203.666 33.448C202.002 36.296 199.554 37.72 196.322 37.72C192.642 37.72 189.842 36.536 187.922 34.168C186.002 31.768 185.042 28.728 185.042 25.048C185.042 21.336 186.066 18.28 188.114 15.88C190.194 13.48 193.09 12.28 196.802 12.28C199.65 12.28 201.842 13.416 203.378 15.688V13H210.578ZM193.826 17.704C192.93 19.496 192.482 21.928 192.482 25C192.482 28.072 192.93 30.504 193.826 32.296C194.722 34.088 196.082 34.984 197.906 34.984C199.762 34.984 201.17 34.088 202.13 32.296C203.122 30.472 203.618 28.04 203.618 25C203.618 21.96 203.122 19.544 202.13 17.752C201.17 15.928 199.762 15.016 197.906 15.016C196.082 15.016 194.722 15.912 193.826 17.704Z" fill="#141414"/>
<path d="M233.751 5.31997V3.39997H246.711V5.31997H243.831V19.96L254.055 3.39997H261.687V5.31997H259.047L245.127 20.92H248.247C252.343 20.92 254.855 22.472 255.783 25.576L257.799 32.296C258.023 33.096 258.311 33.656 258.663 33.976C259.015 34.296 259.607 34.456 260.439 34.456C261.271 34.456 262.247 33.992 263.367 33.064L264.231 34.216C261.671 36.552 258.951 37.72 256.071 37.72C254.599 37.72 253.415 37.464 252.519 36.952C251.623 36.44 250.983 35.544 250.599 34.264L247.767 24.952C247.511 24.056 247.111 23.432 246.567 23.08C246.023 22.728 245.111 22.52 243.831 22.456V35.08H246.711V37H233.751V35.08H236.631V5.31997H233.751Z" fill="#141414"/>
<path d="M291.906 13V31.672C291.906 32.536 292.114 33.224 292.53 33.736C292.946 34.216 293.586 34.456 294.45 34.456C295.314 34.456 296.306 33.992 297.426 33.064L298.29 34.216C295.73 36.552 293.17 37.72 290.61 37.72C287.57 37.72 285.698 36.296 284.994 33.448C283.33 36.296 280.882 37.72 277.65 37.72C273.97 37.72 271.17 36.536 269.25 34.168C267.33 31.768 266.37 28.728 266.37 25.048C266.37 21.336 267.394 18.28 269.442 15.88C271.522 13.48 274.418 12.28 278.13 12.28C280.978 12.28 283.17 13.416 284.706 15.688V13H291.906ZM275.154 17.704C274.258 19.496 273.81 21.928 273.81 25C273.81 28.072 274.258 30.504 275.154 32.296C276.05 34.088 277.41 34.984 279.234 34.984C281.09 34.984 282.498 34.088 283.458 32.296C284.45 30.472 284.946 28.04 284.946 25C284.946 21.96 284.45 19.544 283.458 17.752C282.498 15.928 281.09 15.016 279.234 15.016C277.41 15.016 276.05 15.912 275.154 17.704Z" fill="#141414"/>
<path d="M325.984 3.20797V31.672C325.984 32.536 326.192 33.224 326.608 33.736C327.024 34.216 327.616 34.456 328.384 34.456C329.184 34.456 330.144 33.992 331.264 33.064L332.368 34.216C329.808 36.552 327.248 37.72 324.688 37.72C321.648 37.72 319.776 36.296 319.072 33.448C317.408 36.296 314.96 37.72 311.728 37.72C308.048 37.72 305.248 36.536 303.328 34.168C301.408 31.768 300.448 28.728 300.448 25.048C300.448 21.336 301.472 18.28 303.52 15.88C305.6 13.48 308.496 12.28 312.208 12.28C315.056 12.28 317.248 13.416 318.784 15.688V2.58397C317.024 3.03197 315.68 3.81597 314.752 4.93597L313.456 3.44797C314.384 2.48797 315.552 1.71997 316.96 1.14397C318.4 0.567968 319.808 0.279968 321.184 0.279968C322.592 0.279968 323.744 0.567968 324.64 1.14397C325.536 1.68797 325.984 2.37597 325.984 3.20797ZM309.232 17.704C308.336 19.496 307.888 21.928 307.888 25C307.888 28.072 308.336 30.504 309.232 32.296C310.128 34.088 311.488 34.984 313.312 34.984C315.168 34.984 316.576 34.088 317.536 32.296C318.528 30.472 319.024 28.04 319.024 25C319.024 21.96 318.528 19.544 317.536 17.752C316.576 15.928 315.168 15.016 313.312 15.016C311.488 15.016 310.128 15.912 309.232 17.704Z" fill="#141414"/>
<path d="M338.03 34.072C335.694 31.608 334.526 28.584 334.526 25C334.526 21.416 335.694 18.408 338.03 15.976C340.398 13.512 343.47 12.28 347.246 12.28C351.022 12.28 354.078 13.512 356.414 15.976C358.782 18.408 359.966 21.416 359.966 25C359.966 28.584 358.782 31.608 356.414 34.072C354.078 36.504 351.022 37.72 347.246 37.72C343.47 37.72 340.398 36.504 338.03 34.072ZM343.31 17.32C342.414 19.304 341.966 21.864 341.966 25C341.966 28.136 342.414 30.712 343.31 32.728C344.206 34.712 345.534 35.704 347.294 35.704C349.054 35.704 350.382 34.712 351.278 32.728C352.174 30.712 352.622 28.136 352.622 25C352.622 21.864 352.174 19.304 351.278 17.32C350.382 15.304 349.054 14.296 347.294 14.296C345.534 14.296 344.206 15.304 343.31 17.32Z" fill="#141414"/>
</svg>
