<svg width="31" height="29" viewBox="0 0 31 29" fill="none" xmlns="http://www.w3.org/2000/svg">
<path d="M16.8182 20.5514V19.5847C17.3182 19.3968 17.8295 19.2558 18.3523 19.1618C18.875 19.0678 19.4242 19.0208 20 19.0208C20.3939 19.0208 20.7803 19.0477 21.1591 19.1014C21.5379 19.1551 21.9091 19.2222 22.2727 19.3028V20.1889C21.9091 20.0681 21.5417 19.9774 21.1705 19.917C20.7992 19.8566 20.4091 19.8264 20 19.8264C19.4242 19.8264 18.8712 19.8902 18.3409 20.0177C17.8106 20.1453 17.303 20.3231 16.8182 20.5514ZM16.8182 24.9819V23.9951C17.3182 23.8139 17.8295 23.678 18.3523 23.5873C18.875 23.4967 19.4242 23.4514 20 23.4514C20.3939 23.4514 20.7803 23.4782 21.1591 23.5319C21.5379 23.5856 21.9091 23.6528 22.2727 23.7333V24.6194C21.9091 24.4986 21.5417 24.408 21.1705 24.3476C20.7992 24.2872 20.4091 24.2569 20 24.2569C19.4242 24.2569 18.8712 24.3174 18.3409 24.4382C17.8106 24.559 17.303 24.7403 16.8182 24.9819ZM16.8182 22.7667V21.8C17.3182 21.612 17.8295 21.4711 18.3523 21.3771C18.875 21.2831 19.4242 21.2361 20 21.2361C20.3939 21.2361 20.7803 21.263 21.1591 21.3167C21.5379 21.3704 21.9091 21.4375 22.2727 21.5181V22.4042C21.9091 22.2833 21.5417 22.1927 21.1705 22.1323C20.7992 22.0719 20.4091 22.0417 20 22.0417C19.4242 22.0417 18.8712 22.1054 18.3409 22.233C17.8106 22.3605 17.303 22.5384 16.8182 22.7667ZM9.72727 26.0694C10.5389 26.0694 11.3289 26.1534 12.0973 26.3212C12.8658 26.489 13.6212 26.7407 14.3636 27.0764V18.4771C13.6818 18.0743 12.9423 17.7622 12.145 17.5406C11.3478 17.3191 10.5419 17.2083 9.72727 17.2083C9.15152 17.2083 8.58712 17.2721 8.03409 17.3997C7.48106 17.5272 6.92424 17.685 6.36364 17.8729V26.6132C6.83333 26.4252 7.36742 26.2876 7.96591 26.2003C8.56439 26.1131 9.15152 26.0694 9.72727 26.0694ZM15.7273 27.0764C16.4848 26.7407 17.2273 26.489 17.9545 26.3212C18.6818 26.1534 19.4545 26.0694 20.2727 26.0694C20.8485 26.0694 21.4432 26.1097 22.0568 26.1903C22.6705 26.2708 23.197 26.3782 23.6364 26.5125V17.8729C23.1212 17.6447 22.5771 17.4769 22.004 17.3694C21.431 17.262 20.8539 17.2083 20.2727 17.2083C19.4545 17.2083 18.6629 17.3191 17.8977 17.5406C17.1326 17.7622 16.4091 18.0743 15.7273 18.4771V27.0764ZM15.0455 28.8889C14.2727 28.3787 13.4318 27.986 12.5227 27.7108C11.6136 27.4355 10.6818 27.2979 9.72727 27.2979C9.17368 27.2979 8.62998 27.3583 8.09618 27.4792C7.56236 27.6 7.0303 27.7477 6.5 27.9222C6.15 28.0699 5.8125 28.0498 5.4875 27.8618C5.1625 27.6738 5 27.4053 5 27.0563V17.7319C5 17.5306 5.05303 17.3459 5.15909 17.1781C5.26515 17.0103 5.42424 16.8794 5.63636 16.7854C6.27273 16.5169 6.93481 16.3189 7.62261 16.1913C8.3104 16.0638 9.01195 16 9.72727 16C10.6818 16 11.6098 16.1141 12.5114 16.3424C13.4129 16.5706 14.2576 16.9197 15.0455 17.3896C15.8182 16.9197 16.6477 16.5706 17.5341 16.3424C18.4205 16.1141 19.3333 16 20.2727 16C20.9828 16 21.6793 16.0638 22.3621 16.1913C23.045 16.3189 23.7045 16.5169 24.3409 16.7854C24.553 16.8794 24.7159 17.0103 24.8295 17.1781C24.9432 17.3459 25 17.5306 25 17.7319V27.0563C25 27.4308 24.8295 27.7157 24.4886 27.9111C24.1477 28.1065 23.8106 28.1102 23.4773 27.9222C22.9621 27.7343 22.4376 27.5832 21.9038 27.4691C21.37 27.355 20.8263 27.2979 20.2727 27.2979C19.3182 27.2979 18.4015 27.4389 17.5227 27.7208C16.6439 28.0028 15.8182 28.3921 15.0455 28.8889Z" fill="url(#paint0_linear_4_165)"/>
<defs>
<linearGradient id="paint0_linear_4_165" x1="15" y1="16" x2="15" y2="28.8889" gradientUnits="userSpaceOnUse">
<stop stop-color="#F55BD3"/>
<stop offset="1" stop-color="#C32CD0"/>
</linearGradient>
</defs>
</svg>
