<svg width="30" height="30" viewBox="0 0 30 30" fill="none" xmlns="http://www.w3.org/2000/svg">
<path d="M11.8416 25L15.9367 13H17.7919L22 25H20.0317L19.1041 21.85H14.7602L13.6968 25H11.8416ZM15.2579 20.1H18.4706L16.8869 15.25H16.8416L15.2579 20.1ZM4.71493 22L3.47059 20.625L8.08597 15.525C7.51282 14.7917 7.00377 14.0542 6.55882 13.3125C6.11388 12.5708 5.72549 11.8 5.39367 11H7.36199C7.6184 11.55 7.90121 12.0708 8.21041 12.5625C8.51961 13.0542 8.87029 13.5583 9.26244 14.075C9.94118 13.2917 10.5068 12.4792 10.9593 11.6375C11.4118 10.7958 11.7964 9.91667 12.1131 9H2V7H8.33484V5H10.1448V7H16.4796V9H13.9231C13.5913 10.15 13.1501 11.2792 12.5995 12.3875C12.049 13.4958 11.3741 14.55 10.5747 15.55L12.7919 18.025L12.1131 20.05L9.23982 17L4.71493 22Z" fill="url(#paint0_linear_4_173)"/>
<defs>
<linearGradient id="paint0_linear_4_173" x1="12" y1="5" x2="12" y2="25" gradientUnits="userSpaceOnUse">
<stop stop-color="#F55BD3"/>
<stop offset="1" stop-color="#C32CD0"/>
</linearGradient>
</defs>
</svg>
