<svg width="32" height="32" viewBox="0 0 32 32" fill="none" xmlns="http://www.w3.org/2000/svg">
<path d="M32 16C32 24.8366 24.8366 32 16 32C7.16344 32 0 24.8366 0 16C0 7.16344 7.16344 0 16 0C24.8366 0 32 7.16344 32 16Z" fill="white"/>
<path d="M21.7938 11.4545H21.1122L19.6991 7.2C19.5821 6.84918 19.3695 6.54605 19.0901 6.33147C18.8107 6.11689 18.4778 6.0012 18.1363 6H16.8063C16.3491 6 15.9751 6.40909 15.9751 6.90909C15.9751 7.40909 16.3491 7.81818 16.8063 7.81818H18.1363L19.35 11.4545H15.3516L15.0524 10.5455H15.1272C15.5844 10.5455 15.9584 10.1364 15.9584 9.63636C15.9584 9.13636 15.5844 8.72727 15.1272 8.72727H12.65C12.1929 8.72727 11.8188 9.13636 11.8188 9.63636C11.8188 10.1364 12.1929 10.5455 12.65 10.5455H13.2735L14.7864 15.0909H14.2294C13.8637 13.0636 12.3092 11.5636 10.3641 11.4636C8.03658 11.3364 6 13.4545 6 16C6 18.5455 7.82876 20.5455 10.1563 20.5455C12.2012 20.5455 13.8554 19.0091 14.2294 16.9091H17.7207C18.0865 18.9364 19.6409 20.4364 21.586 20.5364C23.9135 20.6545 25.9501 18.5455 25.9501 15.9909C25.9501 13.4545 24.1214 11.4545 21.7938 11.4545ZM10.9875 16.9091H12.5004C12.1513 18.0273 11.1704 18.8 9.99003 18.7182C8.75146 18.6364 7.7207 17.4909 7.66251 16.1273C7.60432 14.5364 8.7182 13.2727 10.1563 13.2727C11.2618 13.2727 12.1679 14.0273 12.5004 15.0909H10.9875C10.5303 15.0909 10.1563 15.5 10.1563 16C10.1563 16.5 10.5303 16.9091 10.9875 16.9091ZM17.7207 15.0909H16.5569L15.9501 13.2727H18.4688C18.1031 13.8 17.8371 14.4091 17.7207 15.0909ZM21.6941 18.7273C20.414 18.6727 19.3333 17.4818 19.3001 16.0727C19.2835 15.2 19.6243 14.4364 20.1729 13.9273L20.6883 15.4727C20.8462 15.9455 21.32 16.1909 21.7523 16.0182C22.1845 15.8455 22.409 15.3273 22.251 14.8545L21.7273 13.2818L21.7357 13.2727C22.0689 13.2603 22.4011 13.3219 22.712 13.4537C23.0229 13.5855 23.3062 13.7849 23.5447 14.0398C23.7832 14.2947 23.972 14.5998 24.0997 14.9367C24.2274 15.2736 24.2913 15.6353 24.2876 16C24.2876 17.5636 23.1405 18.7818 21.6941 18.7273ZM15.1438 23.2727H11.8188L16.8063 26V24.1818H20.1313L15.1438 21.4545V23.2727Z" fill="url(#paint0_linear_16_161)"/>
<defs>
<linearGradient id="paint0_linear_16_161" x1="15.9751" y1="6" x2="15.9751" y2="26" gradientUnits="userSpaceOnUse">
<stop stop-color="#FFB60D"/>
<stop offset="1" stop-color="#E59B17"/>
</linearGradient>
</defs>
</svg>
