<svg width="27" height="23" viewBox="0 0 27 23" fill="none" xmlns="http://www.w3.org/2000/svg">
<path d="M19.8355 17.7733C18.0503 17.7733 16.9263 18.3333 15.9345 18.84C15.075 19.28 14.3741 19.64 13.2237 19.64C12.0336 19.64 11.3724 19.3067 10.5128 18.84C9.52105 18.3333 8.43671 17.7733 6.61184 17.7733C4.78697 17.7733 3.70263 18.3333 2.71086 18.84C2.14224 19.1333 1.63974 19.3867 1.03145 19.5333C0.436382 19.6667 0 20.1467 0 20.7467V20.88C0 21.68 0.740526 22.2533 1.5075 22.0933C2.48605 21.8933 3.22658 21.52 3.90099 21.1733C4.76053 20.7333 5.44816 20.3733 6.61184 20.3733C7.77553 20.3733 8.46316 20.7067 9.3227 21.1733C10.3145 21.68 11.3988 22.24 13.2237 22.24C15.0486 22.24 16.1329 21.68 17.1247 21.1733C17.9842 20.7333 18.6851 20.3733 19.8355 20.3733C21.0257 20.3733 21.6868 20.7067 22.5464 21.1733C23.234 21.52 23.9745 21.9067 24.9663 22.1067C25.145 22.1418 25.3291 22.137 25.5057 22.0925C25.6823 22.048 25.847 21.965 25.9883 21.8493C26.1296 21.7335 26.2439 21.5879 26.3232 21.4228C26.4026 21.2576 26.4449 21.0768 26.4474 20.8933V20.7733C26.4474 20.16 25.9978 19.68 25.4027 19.5467C24.7944 19.4133 24.3051 19.16 23.7365 18.8533C22.7447 18.3333 21.6207 17.7733 19.8355 17.7733ZM19.8355 11.84C18.0503 11.84 16.9263 12.4133 15.9345 12.9067C15.075 13.3333 14.3741 13.7067 13.2237 13.7067C12.0336 13.7067 11.3724 13.3733 10.5128 12.9067C9.52105 12.4 8.43671 11.84 6.61184 11.84C4.78697 11.84 3.70263 12.4133 2.71086 12.9067C2.14224 13.1867 1.63974 13.4533 1.01822 13.6C0.436382 13.7333 0 14.2133 0 14.8133V14.9467C7.55704e-05 15.131 0.0408909 15.3129 0.119477 15.4793C0.198063 15.6457 0.312443 15.7923 0.454298 15.9085C0.596153 16.0247 0.761915 16.1076 0.939526 16.1511C1.11714 16.1946 1.30213 16.1977 1.48105 16.16C2.47283 15.96 3.21335 15.5733 3.90099 15.24C4.76053 14.7733 5.42171 14.44 6.61184 14.44C7.80197 14.44 8.46316 14.7733 9.3227 15.24C10.3145 15.7467 11.3988 16.3067 13.2237 16.3067C15.0486 16.3067 16.1329 15.7333 17.1247 15.24C17.9842 14.7733 18.6454 14.44 19.8355 14.44C21.0257 14.44 21.6868 14.7733 22.5464 15.24C23.234 15.5867 23.9745 15.9733 24.9663 16.1733C25.146 16.2087 25.3313 16.2036 25.5089 16.1583C25.6864 16.1131 25.8518 16.0289 25.9933 15.9117C26.1348 15.7945 26.2489 15.6472 26.3274 15.4804C26.4059 15.3136 26.4469 15.1313 26.4474 14.9467V14.8267C26.4474 14.2133 25.9978 13.7333 25.4027 13.6C24.7944 13.4667 24.3051 13.2133 23.7365 12.9067C22.7447 12.4 21.6207 11.84 19.8355 11.84ZM23.7365 1.06667C22.7447 0.56 21.6472 0 19.8355 0C18.0239 0 16.9263 0.56 15.9345 1.06667C15.075 1.49333 14.3741 1.86667 13.2237 1.86667C12.0336 1.86667 11.3724 1.53333 10.5128 1.06667C9.52105 0.573333 8.43671 0 6.61184 0C4.78697 0 3.70263 0.56 2.71086 1.06667C2.14224 1.36 1.63974 1.61333 1.03145 1.76C0.436382 1.89333 0 2.37333 0 2.97333V3.06667C0 3.86667 0.714079 4.45333 1.48105 4.29333C2.47283 4.09333 3.21335 3.70667 3.90099 3.37333C4.76053 2.93333 5.44816 2.57333 6.61184 2.57333C7.77553 2.57333 8.46316 2.90667 9.3227 3.37333C10.3145 3.88 11.3988 4.44 13.2237 4.44C15.0486 4.44 16.1329 3.86667 17.1247 3.37333C17.9842 2.94667 18.6851 2.57333 19.8355 2.57333C21.0257 2.57333 21.6868 2.90667 22.5464 3.37333C23.234 3.72 23.9745 4.10667 24.9663 4.30667C25.146 4.34202 25.3313 4.3369 25.5089 4.29167C25.6864 4.24644 25.8518 4.16221 25.9933 4.04501C26.1348 3.92781 26.2489 3.78053 26.3274 3.61371C26.4059 3.44689 26.4469 3.26464 26.4474 3.08V2.96C26.4474 2.34667 25.9978 1.86667 25.4027 1.73333C24.7944 1.6 24.3051 1.36 23.7365 1.06667ZM19.8355 5.90667C18.0503 5.90667 16.9263 6.48 15.9345 6.97333C15.075 7.44 14.4138 7.77333 13.2237 7.77333C12.0336 7.77333 11.3724 7.44 10.5128 6.97333C9.52105 6.46667 8.43671 5.90667 6.61184 5.90667C4.78697 5.90667 3.70263 6.48 2.71086 6.97333C2.14224 7.28 1.65296 7.53333 1.04467 7.66667C0.449605 7.8 0 8.28 0 8.89333V9.01333C7.55704e-05 9.19763 0.0408909 9.37958 0.119477 9.54597C0.198063 9.71236 0.312443 9.85899 0.454298 9.9752C0.596153 10.0914 0.761915 10.1743 0.939526 10.2178C1.11714 10.2613 1.30213 10.2643 1.48105 10.2267C2.47283 10.0267 3.21335 9.64 3.90099 9.30667C4.76053 8.88 5.46138 8.50667 6.61184 8.50667C7.7623 8.50667 8.46316 8.84 9.3227 9.30667C10.3145 9.81333 11.3988 10.3733 13.2237 10.3733C15.0486 10.3733 16.1329 9.8 17.1247 9.30667C17.9842 8.88 18.6851 8.50667 19.8355 8.50667C21.0257 8.50667 21.6868 8.84 22.5464 9.30667C23.234 9.65333 23.9745 10.04 24.9663 10.24C25.145 10.2752 25.3291 10.2703 25.5057 10.2259C25.6823 10.1814 25.847 10.0983 25.9883 9.98261C26.1296 9.86688 26.2439 9.72128 26.3232 9.5561C26.4026 9.39091 26.4449 9.21018 26.4474 9.02667V8.90667C26.4474 8.29333 25.9978 7.81333 25.4027 7.68C24.7944 7.54667 24.3051 7.29333 23.7365 6.98667C22.7447 6.46667 21.6207 5.90667 19.8355 5.90667Z" fill="url(#paint0_linear_14_860)"/>
<defs>
<linearGradient id="paint0_linear_14_860" x1="13.2237" y1="0" x2="13.2237" y2="22.24" gradientUnits="userSpaceOnUse">
<stop stop-color="#FFBB00"/>
<stop offset="1" stop-color="#F2A60C"/>
</linearGradient>
</defs>
</svg>
