<svg width="27" height="22" viewBox="0 0 27 22" fill="none" xmlns="http://www.w3.org/2000/svg">
<path d="M23.0898 8.02572C22.9593 8.22009 22.8821 8.44573 22.8658 8.67985C22.8496 8.91396 22.8949 9.14826 22.9972 9.35905C23.3251 10.1311 23.5566 10.9417 23.6848 11.7724C24.0252 13.9192 23.7069 16.1197 22.7724 18.0791C22.6589 18.294 22.4892 18.4734 22.2818 18.598C22.0743 18.7226 21.837 18.7875 21.5955 18.7857H4.86753C4.62471 18.7862 4.38643 18.7193 4.17883 18.5923C3.97123 18.4653 3.80232 18.2831 3.69062 18.0657C2.84415 16.3343 2.47952 14.4037 2.63561 12.4798C2.79171 10.5559 3.46267 8.71073 4.57698 7.14105C5.69129 5.57137 7.20717 4.336 8.96301 3.56664C10.7189 2.79729 12.6489 2.52278 14.5473 2.77239C15.5078 2.88622 16.4473 3.13765 17.3375 3.51905C17.5465 3.62222 17.7789 3.66791 18.0111 3.65153C18.2433 3.63514 18.4671 3.55725 18.6598 3.42572C18.8607 3.29231 19.0216 3.1062 19.1254 2.88742C19.2291 2.66864 19.2717 2.42548 19.2486 2.1841C19.2255 1.94272 19.1375 1.71228 18.9941 1.51756C18.8508 1.32285 18.6575 1.17124 18.435 1.07905C15.8805 -0.0254029 13.0457 -0.290162 10.3334 0.322385C7.62113 0.934932 5.16922 2.39364 3.32599 4.4913C1.48275 6.58895 0.341923 9.2189 0.065547 12.0076C-0.210829 14.7962 0.391303 17.6018 1.78641 20.0257C2.01718 20.4288 2.34854 20.7639 2.74755 20.9978C3.14656 21.2317 3.59934 21.3562 4.06089 21.3591H22.3757C22.8417 21.3609 23.3 21.2386 23.704 21.0044C24.1081 20.7703 24.4436 20.4327 24.6766 20.0257C25.698 18.241 26.2952 16.2418 26.4214 14.1852C26.5476 12.1286 26.1993 10.0705 25.4039 8.17239C25.3032 7.95607 25.1466 7.77102 24.9506 7.63662C24.7547 7.50222 24.5264 7.4234 24.2899 7.4084C24.0533 7.39341 23.8171 7.4428 23.606 7.5514C23.3949 7.66 23.2166 7.82382 23.0898 8.02572Z" fill="url(#paint0_linear_14_862)"/>
<path d="M11.3605 11.4791C10.8642 11.9795 10.5854 12.6581 10.5854 13.3658C10.5854 13.7162 10.6539 14.0631 10.7868 14.3868C10.9198 14.7106 11.1147 15.0047 11.3605 15.2525C11.6062 15.5002 11.8979 15.6967 12.219 15.8308C12.54 15.9649 12.8841 16.0339 13.2316 16.0339C13.9334 16.0339 14.6065 15.7528 15.1028 15.2525L22.5874 3.93245L11.3605 11.4791Z" fill="url(#paint1_linear_14_862)"/>
<defs>
<linearGradient id="paint0_linear_14_862" x1="13.2233" y1="0" x2="13.2233" y2="21.3591" gradientUnits="userSpaceOnUse">
<stop stop-color="#FFBB00"/>
<stop offset="1" stop-color="#F2A60C"/>
</linearGradient>
<linearGradient id="paint1_linear_14_862" x1="13.2233" y1="0" x2="13.2233" y2="21.3591" gradientUnits="userSpaceOnUse">
<stop stop-color="#FFBB00"/>
<stop offset="1" stop-color="#F2A60C"/>
</linearGradient>
</defs>
</svg>
