<svg width="30" height="30" viewBox="0 0 30 30" fill="none" xmlns="http://www.w3.org/2000/svg">
<path d="M14.5461 9.33333C11.6236 9.33333 9.25658 11.72 9.25658 14.6667C9.25658 17.6133 11.6236 20 14.5461 20C17.4685 20 19.8355 17.6133 19.8355 14.6667C19.8355 11.72 17.4685 9.33333 14.5461 9.33333ZM26.368 13.3333C26.0685 10.6295 24.866 8.10872 22.958 6.18493C21.0501 4.26113 18.55 3.04868 15.8684 2.74667V1.33333C15.8684 0.6 15.2734 0 14.5461 0C13.8188 0 13.2237 0.6 13.2237 1.33333V2.74667C10.5421 3.04868 8.04203 4.26113 6.13406 6.18493C4.22609 8.10872 3.02361 10.6295 2.72408 13.3333H1.32237C0.595066 13.3333 0 13.9333 0 14.6667C0 15.4 0.595066 16 1.32237 16H2.72408C3.02361 18.7038 4.22609 21.2246 6.13406 23.1484C8.04203 25.0722 10.5421 26.2847 13.2237 26.5867V28C13.2237 28.7333 13.8188 29.3333 14.5461 29.3333C15.2734 29.3333 15.8684 28.7333 15.8684 28V26.5867C18.55 26.2847 21.0501 25.0722 22.958 23.1484C24.866 21.2246 26.0685 18.7038 26.368 16H27.7697C28.497 16 29.0921 15.4 29.0921 14.6667C29.0921 13.9333 28.497 13.3333 27.7697 13.3333H26.368ZM14.5461 24C9.42849 24 5.28947 19.8267 5.28947 14.6667C5.28947 9.50667 9.42849 5.33333 14.5461 5.33333C19.6636 5.33333 23.8026 9.50667 23.8026 14.6667C23.8026 19.8267 19.6636 24 14.5461 24Z" fill="url(#paint0_linear_14_864)"/>
<defs>
<linearGradient id="paint0_linear_14_864" x1="14.5461" y1="0" x2="14.5461" y2="29.3333" gradientUnits="userSpaceOnUse">
<stop stop-color="#FFBB00"/>
<stop offset="1" stop-color="#F2A60C"/>
</linearGradient>
</defs>
</svg>
