<svg width="32" height="30" viewBox="0 0 32 30" fill="none" xmlns="http://www.w3.org/2000/svg">
<path d="M25.125 8H24.0407L21.7926 1.76C21.6065 1.24547 21.2684 0.800867 20.8239 0.486155C20.3793 0.171443 19.8498 0.00176217 19.3066 0H17.1908C16.4635 0 15.8684 0.6 15.8684 1.33333C15.8684 2.06667 16.4635 2.66667 17.1908 2.66667H19.3066L21.2372 8H14.8766L14.4006 6.66667H14.5196C15.2469 6.66667 15.842 6.06667 15.842 5.33333C15.842 4.6 15.2469 4 14.5196 4H10.5789C9.85164 4 9.25658 4.6 9.25658 5.33333C9.25658 6.06667 9.85164 6.66667 10.5789 6.66667H11.5707L13.9774 13.3333H13.0914C12.5096 10.36 10.0368 8.16 6.94243 8.01333C3.2398 7.82667 0 10.9333 0 14.6667C0 18.4 2.90921 21.3333 6.61184 21.3333C9.86487 21.3333 12.4964 19.08 13.0914 16H18.6454C19.2272 18.9733 21.7001 21.1733 24.7944 21.32C28.497 21.4933 31.7368 18.4 31.7368 14.6533C31.7368 10.9333 28.8276 8 25.125 8ZM7.93421 16H10.3409C9.78553 17.64 8.22513 18.7733 6.34737 18.6533C4.37704 18.5333 2.7373 16.8533 2.64474 14.8533C2.55217 12.52 4.32414 10.6667 6.61184 10.6667C8.37059 10.6667 9.81197 11.7733 10.3409 13.3333H7.93421C7.20691 13.3333 6.61184 13.9333 6.61184 14.6667C6.61184 15.4 7.20691 16 7.93421 16ZM18.6454 13.3333H16.7941L15.8287 10.6667H19.8355C19.2537 11.44 18.8305 12.3333 18.6454 13.3333ZM24.9663 18.6667C22.9299 18.5867 21.2108 16.84 21.1579 14.7733C21.1314 13.4933 21.6736 12.3733 22.5464 11.6267L23.3662 13.8933C23.6175 14.5867 24.3713 14.9467 25.0589 14.6933C25.7465 14.44 26.1036 13.68 25.8523 12.9867L25.0192 10.68L25.0324 10.6667C25.5626 10.6484 26.091 10.7387 26.5856 10.9321C27.0802 11.1255 27.5308 11.4179 27.9102 11.7917C28.2896 12.1656 28.59 12.6131 28.7931 13.1072C28.9962 13.6013 29.098 14.1318 29.0921 14.6667C29.0921 16.96 27.2672 18.7467 24.9663 18.6667ZM14.5461 25.3333H9.25658L17.1908 29.3333V26.6667H22.4803L14.5461 22.6667V25.3333Z" fill="url(#paint0_linear_14_859)"/>
<defs>
<linearGradient id="paint0_linear_14_859" x1="15.8684" y1="0" x2="15.8684" y2="29.3333" gradientUnits="userSpaceOnUse">
<stop stop-color="#FFBB00"/>
<stop offset="1" stop-color="#F2A60C"/>
</linearGradient>
</defs>
</svg>
