<svg width="22" height="28" viewBox="0 0 22 28" fill="none" xmlns="http://www.w3.org/2000/svg">
<path d="M18.5132 9.33333H17.1908V6.66667C17.1908 2.98667 14.2287 0 10.5789 0C6.92921 0 3.96711 2.98667 3.96711 6.66667V9.33333H2.64474C1.19013 9.33333 0 10.5333 0 12V25.3333C0 26.8 1.19013 28 2.64474 28H18.5132C19.9678 28 21.1579 26.8 21.1579 25.3333V12C21.1579 10.5333 19.9678 9.33333 18.5132 9.33333ZM10.5789 21.3333C9.12434 21.3333 7.93421 20.1333 7.93421 18.6667C7.93421 17.2 9.12434 16 10.5789 16C12.0336 16 13.2237 17.2 13.2237 18.6667C13.2237 20.1333 12.0336 21.3333 10.5789 21.3333ZM6.61184 9.33333V6.66667C6.61184 4.45333 8.38382 2.66667 10.5789 2.66667C12.7741 2.66667 14.5461 4.45333 14.5461 6.66667V9.33333H6.61184Z" fill="url(#paint0_linear_14_863)"/>
<defs>
<linearGradient id="paint0_linear_14_863" x1="10.5789" y1="0" x2="10.5789" y2="28" gradientUnits="userSpaceOnUse">
<stop stop-color="#FFBB00"/>
<stop offset="1" stop-color="#F2A60C"/>
</linearGradient>
</defs>
</svg>
