<svg width="22" height="22" viewBox="0 0 22 22" fill="none" xmlns="http://www.w3.org/2000/svg">
<path d="M2.71103 5.34918C0.979763 7.09509 0.00497564 9.46145 1.89951e-05 11.9303C-0.00493765 14.3992 0.96034 16.7695 2.68458 18.5225C4.62847 13.9892 8.09307 10.2025 12.4172 7.94918C8.68492 11.1334 6.16548 15.526 5.28965 20.3758C8.72781 22.0158 12.9594 21.4158 15.8025 18.5492C19.7564 14.5625 20.8671 3.69585 21.1052 0.709179C21.1135 0.614279 21.101 0.5187 21.0687 0.42917C21.0364 0.339639 20.9851 0.258331 20.9183 0.190966C20.8515 0.123602 20.7708 0.0718188 20.682 0.0392598C20.5932 0.00670077 20.4984 -0.00584255 20.4043 0.00251215C17.4422 0.242512 6.66491 1.36251 2.71103 5.34918Z" fill="url(#paint0_linear_14_861)"/>
<defs>
<linearGradient id="paint0_linear_14_861" x1="10.5538" y1="0" x2="10.5538" y2="21.2751" gradientUnits="userSpaceOnUse">
<stop stop-color="#FFBB00"/>
<stop offset="1" stop-color="#F2A60C"/>
</linearGradient>
</defs>
</svg>
