<svg width="16" height="16" viewBox="0 0 16 16" fill="none" xmlns="http://www.w3.org/2000/svg">
<path d="M14.0255 10.717L11.9085 10.475C11.6597 10.4458 11.4076 10.4734 11.171 10.5557C10.9344 10.638 10.7195 10.7728 10.5425 10.95L9.00849 12.483C6.64318 11.2799 4.72061 9.3573 3.51749 6.992L5.05849 5.45C5.41749 5.092 5.59249 4.592 5.53349 4.083L5.29249 1.983C5.24513 1.57641 5.04991 1.20143 4.74399 0.929441C4.43808 0.657456 4.04283 0.507456 3.63349 0.507997H2.19249C1.25049 0.507997 0.46749 1.292 0.52549 2.233C0.96749 9.35 6.65849 15.033 13.7675 15.475C14.7085 15.533 15.4925 14.75 15.4925 13.808V12.367C15.4946 11.9594 15.3459 11.5655 15.0751 11.2609C14.8043 10.9564 14.4305 10.7626 14.0255 10.717Z" fill="url(#paint0_linear_14_871)"/>
<defs>
<linearGradient id="paint0_linear_14_871" x1="8.00749" y1="0.507996" x2="8.00749" y2="15.478" gradientUnits="userSpaceOnUse">
<stop stop-color="#FFBB00"/>
<stop offset="1" stop-color="#F2A60C"/>
</linearGradient>
</defs>
</svg>
