<svg width="151" height="39" viewBox="0 0 151 39" fill="none" xmlns="http://www.w3.org/2000/svg">
<path fill-rule="evenodd" clip-rule="evenodd" d="M25.7413 16.8501C28.5493 16.8501 30.0663 20.1421 28.2373 22.2751L25.5773 25.3751C25.8653 27.2137 26.8363 28.876 28.2963 30.0301C29.7576 31.1848 31.6003 31.7467 33.4573 31.604C35.3143 31.4614 37.0495 30.6245 38.3173 29.2601C39.584 27.8962 40.2894 26.1045 40.2923 24.2431C40.292 23.9193 40.3556 23.5986 40.4795 23.2994C40.6033 23.0002 40.785 22.7284 41.0141 22.4995C41.2431 22.2706 41.5151 22.0891 41.8144 21.9655C42.1137 21.8419 42.4344 21.7785 42.7583 21.7791C43.412 21.7793 44.0388 22.0389 44.5013 22.5009C44.9639 22.9628 45.2242 23.5894 45.2253 24.2431C45.2251 26.829 44.4106 29.3492 42.8973 31.4461C41.7642 33.0129 40.2791 34.2917 38.5615 35.1795C36.8438 36.0674 34.9417 36.5395 33.0082 36.5578C31.0748 36.576 29.1641 36.14 27.4299 35.2848C25.6958 34.4296 24.1867 33.1791 23.0243 31.6341C21.8618 33.1791 20.3527 34.4296 18.6186 35.2848C16.8845 36.14 14.9738 36.576 13.0403 36.5578C11.1068 36.5395 9.20471 36.0674 7.48707 35.1795C5.76943 34.2917 4.28429 33.0129 3.15127 31.4461C1.63762 29.3493 0.822741 26.8291 0.822266 24.2431C0.822003 23.9192 0.885655 23.5984 1.00958 23.2991C1.1335 22.9999 1.31525 22.728 1.54443 22.4991C1.7736 22.2702 2.04569 22.0888 2.3451 21.9652C2.64451 21.8417 2.96536 21.7784 3.28927 21.7791C3.94296 21.7793 4.56984 22.0389 5.03235 22.5009C5.49486 22.9628 5.75521 23.5894 5.75627 24.2431C5.7535 26.1074 6.45579 27.9039 7.72227 29.2721C8.6679 30.2935 9.8823 31.0276 11.2262 31.3903C12.57 31.753 13.9889 31.7295 15.32 31.3225C16.6511 30.9156 17.8406 30.1416 18.7519 29.0895C19.6632 28.0374 20.2594 26.7496 20.4723 25.3741L17.8103 22.2741C15.9823 20.1421 17.4983 16.8511 20.3103 16.8511L25.7413 16.8501Z" fill="#9C9C9C"/>
<path d="M34.5353 10.2801C35.1829 10.2806 35.8242 10.1535 36.4227 9.90614C37.0211 9.65874 37.565 9.29587 38.0232 8.83823C38.4814 8.3806 38.8449 7.83718 39.093 7.23901C39.3412 6.64085 39.469 5.99966 39.4693 5.35207C39.469 4.70449 39.3412 4.0633 39.093 3.46513C38.8449 2.86697 38.4814 2.32355 38.0232 1.86592C37.565 1.40828 37.0211 1.0454 36.4227 0.798008C35.8242 0.550613 35.1829 0.423548 34.5353 0.424074C33.8878 0.42368 33.2465 0.550841 32.6482 0.798295C32.0498 1.04575 31.5061 1.40865 31.048 1.86627C30.5899 2.32389 30.2265 2.86727 29.9784 3.46537C29.7303 4.06347 29.6025 4.70457 29.6023 5.35207C29.6025 5.99958 29.7303 6.64068 29.9784 7.23878C30.2265 7.83688 30.5899 8.38026 31.048 8.83788C31.5061 9.2955 32.0498 9.6584 32.6482 9.90585C33.2465 10.1533 33.8878 10.2805 34.5353 10.2801ZM11.5123 10.2801C12.1598 10.2805 12.801 10.1533 13.3994 9.90585C13.9977 9.6584 14.5415 9.2955 14.9995 8.83788C15.4576 8.38026 15.8211 7.83688 16.0691 7.23878C16.3172 6.64068 16.445 5.99958 16.4453 5.35207C16.445 4.70457 16.3172 4.06347 16.0691 3.46537C15.8211 2.86727 15.4576 2.32389 14.9995 1.86627C14.5415 1.40865 13.9977 1.04575 13.3994 0.798295C12.801 0.550841 12.1598 0.42368 11.5123 0.424074C10.8647 0.423548 10.2233 0.550613 9.62487 0.798008C9.0264 1.0454 8.48254 1.40828 8.02435 1.86592C7.56616 2.32355 7.20262 2.86697 6.9545 3.46513C6.70637 4.0633 6.57853 4.70449 6.57827 5.35207C6.57853 5.99966 6.70637 6.64085 6.9545 7.23901C7.20262 7.83718 7.56616 8.3806 8.02435 8.83823C8.48254 9.29587 9.0264 9.65874 9.62487 9.90614C10.2233 10.1535 10.8647 10.2806 11.5123 10.2801ZM79.4453 1.62807C80.2053 1.62807 80.8293 1.84507 81.3173 2.27907C81.8053 2.71307 82.0493 3.28307 82.0493 3.98907V28.3241C82.0493 29.0571 81.8193 29.6401 81.3573 30.0741C80.8973 30.5081 80.2863 30.7251 79.5273 30.7251C78.7673 30.7251 78.1573 30.5081 77.6953 30.0751C77.2343 29.6401 77.0033 29.0571 77.0033 28.3251V27.3071C76.4063 28.4191 75.5383 29.2871 74.3983 29.9111C73.2863 30.5351 72.0113 30.8471 70.5733 30.8471C68.8633 30.8471 67.3313 30.4131 65.9753 29.5451C64.6453 28.6771 63.6013 27.4561 62.8413 25.8821C62.1083 24.2821 61.7423 22.4511 61.7423 20.3891C61.7423 18.3271 62.1083 16.5231 62.8413 14.9761C63.6013 13.4301 64.6453 12.2361 65.9753 11.3951C67.3043 10.5541 68.8373 10.1331 70.5733 10.1331C72.0113 10.1331 73.2863 10.4321 74.3993 11.0291C75.4838 11.5989 76.3755 12.4767 76.9623 13.5521V3.90707C76.9623 3.22907 77.1793 2.68607 77.6133 2.27907C78.0753 1.84507 78.6853 1.62807 79.4453 1.62807ZM71.9163 26.9001C73.5443 26.9001 74.7923 26.3441 75.6603 25.2311C76.5553 24.1191 77.0033 22.5311 77.0033 20.4701C77.0033 18.4081 76.5553 16.8341 75.6603 15.7501C74.7923 14.6371 73.5583 14.0801 71.9573 14.0801C70.3293 14.0801 69.0673 14.6231 68.1723 15.7091C67.2773 16.7941 66.8293 18.3541 66.8293 20.3891C66.8293 22.4511 67.2773 24.0511 68.1723 25.1911C69.0673 26.3311 70.3153 26.9001 71.9163 26.9001ZM96.3573 30.8471C94.3233 30.8471 92.5323 30.4271 90.9863 29.5861C89.4663 28.7451 88.2863 27.5381 87.4453 25.9641C86.6043 24.3901 86.1833 22.5591 86.1833 20.4701C86.1833 18.3811 86.6033 16.5631 87.4453 15.0171C88.2863 13.4431 89.4663 12.2361 90.9853 11.3951C92.5323 10.5541 94.3233 10.1331 96.3573 10.1331C98.3923 10.1331 100.169 10.5531 101.688 11.3951C103.211 12.2117 104.447 13.4759 105.229 15.0171C106.07 16.5631 106.491 18.3811 106.491 20.4701C106.491 22.5601 106.07 24.3901 105.229 25.9641C104.447 27.5052 103.211 28.7694 101.688 29.5861C100.169 30.4261 98.3913 30.8471 96.3573 30.8471ZM96.3173 26.9001C97.9723 26.9001 99.2333 26.3571 100.101 25.2721C100.97 24.1871 101.404 22.5861 101.404 20.4701C101.404 18.3811 100.97 16.7941 100.101 15.7091C99.2333 14.5961 97.9853 14.0401 96.3573 14.0401C94.7303 14.0401 93.4673 14.5961 92.5733 15.7091C91.7053 16.7941 91.2703 18.3811 91.2703 20.4701C91.2703 22.5861 91.7043 24.1871 92.5733 25.2721C93.4413 26.3571 94.6893 26.9001 96.3173 26.9001ZM127.538 10.2151C128.298 10.2151 128.908 10.4321 129.369 10.8651C129.831 11.3001 130.061 11.8831 130.061 12.6151V28.6901C130.061 31.8101 129.193 34.1701 127.457 35.7721C125.72 37.3721 123.157 38.1721 119.765 38.1721C116.808 38.1721 114.339 37.6171 112.359 36.5041C111.355 35.9071 110.853 35.1881 110.853 34.3471C110.853 33.7501 110.989 33.2761 111.26 32.9231C111.558 32.5701 111.938 32.3931 112.399 32.3931C112.644 32.3931 112.942 32.4481 113.295 32.5571C113.647 32.6921 114.014 32.8421 114.393 33.0041C115.243 33.3656 116.113 33.6781 116.998 33.9401C117.785 34.1571 118.68 34.2661 119.684 34.2661C123.238 34.2661 125.015 32.5301 125.015 29.0561V26.4521C124.418 27.5651 123.55 28.4321 122.411 29.0571C121.271 29.6541 119.969 29.9521 118.504 29.9521C116.767 29.9521 115.221 29.5451 113.864 28.7321C112.535 27.8901 111.491 26.7241 110.731 25.2321C109.971 23.7391 109.591 22.0171 109.591 20.0631C109.591 18.1101 109.958 16.3871 110.69 14.8951C111.45 13.3751 112.508 12.2091 113.864 11.3951C115.221 10.5541 116.767 10.1331 118.504 10.1331C119.969 10.1331 121.271 10.4451 122.411 11.0691C123.521 11.6373 124.43 12.5322 125.015 13.6331V12.5751C125.015 11.8701 125.246 11.3001 125.707 10.8651C126.168 10.4321 126.779 10.2151 127.538 10.2151ZM119.847 26.0051C121.475 26.0051 122.736 25.4751 123.631 24.4181C124.554 23.3591 125.015 21.9081 125.015 20.0631C125.015 18.1911 124.554 16.7261 123.631 15.6681C122.736 14.6101 121.475 14.0811 119.847 14.0811C118.246 14.0811 116.984 14.6101 116.062 15.6681C115.14 16.7261 114.678 18.1911 114.678 20.0631C114.678 21.9081 115.14 23.3591 116.062 24.4181C116.984 25.4761 118.246 26.0051 119.847 26.0051ZM142.533 30.8471C139.576 30.8471 137.189 30.2641 135.371 29.0971C134.503 28.5821 134.069 27.8491 134.069 26.9001C134.069 26.3571 134.218 25.9231 134.516 25.5981C134.815 25.2451 135.181 25.0681 135.615 25.0681C136.076 25.0681 136.714 25.2861 137.528 25.7201C138.396 26.1271 139.183 26.4391 139.888 26.6561C140.621 26.8731 141.543 26.9811 142.655 26.9811C143.795 26.9811 144.677 26.7911 145.301 26.4111C145.952 26.0311 146.277 25.5031 146.277 24.8241C146.277 24.3641 146.142 23.9971 145.87 23.7261C145.626 23.4541 145.165 23.2101 144.487 22.9931C143.835 22.7491 142.832 22.4781 141.475 22.1791C139.061 21.6911 137.324 20.9991 136.266 20.1041C135.235 19.2091 134.72 17.9741 134.72 16.4011C134.72 15.2071 135.072 14.1351 135.778 13.1851C136.483 12.2091 137.446 11.4631 138.667 10.9471C139.915 10.4051 141.326 10.1331 142.899 10.1331C144.039 10.1331 145.138 10.2831 146.196 10.5811C147.206 10.8313 148.168 11.2433 149.045 11.8011C149.913 12.3441 150.347 13.0631 150.347 13.9591C150.347 14.5011 150.198 14.9631 149.899 15.3421C149.601 15.6951 149.234 15.8721 148.8 15.8721C148.502 15.8721 148.203 15.8171 147.905 15.7091C147.548 15.5273 147.195 15.3372 146.847 15.1391C146.06 14.7321 145.382 14.4341 144.812 14.2441C144.242 14.0271 143.537 13.9181 142.696 13.9181C141.692 13.9181 140.892 14.1221 140.295 14.5281C139.725 14.9351 139.44 15.4921 139.44 16.1971C139.44 16.8751 139.739 17.3911 140.336 17.7431C140.933 18.0961 142.086 18.4491 143.795 18.8021C145.613 19.1821 147.037 19.6151 148.068 20.1041C149.099 20.5921 149.831 21.2031 150.265 21.9351C150.727 22.6681 150.957 23.6041 150.957 24.7431C150.957 26.5881 150.184 28.0671 148.638 29.1791C147.118 30.2911 145.083 30.8471 142.533 30.8471Z" fill="#9C9C9C"/>
</svg>
