<svg width="200" height="49" viewBox="0 0 200 49" fill="none" xmlns="http://www.w3.org/2000/svg">
<path d="M54.3807 44.014C51.0607 44.014 48.5157 43.446 46.7447 42.31C45.0047 41.142 44.1357 39.437 44.1357 37.196C44.1357 36.06 44.5157 35.128 45.2737 34.402C46.0647 33.645 47.0767 33.266 48.3097 33.266C49.0367 33.298 49.5897 33.486 49.9697 33.834C50.3497 34.15 50.5397 34.45 50.5397 34.734C50.5397 34.765 50.3807 34.876 50.0647 35.065C49.7487 35.255 49.4647 35.539 49.2107 35.917C48.9577 36.297 48.8307 36.817 48.8307 37.48C48.8307 38.964 49.2747 40.116 50.1597 40.937C51.0767 41.726 52.4837 42.12 54.3807 42.12C55.6777 42.12 56.8157 41.868 57.7967 41.363C58.7767 40.858 59.5197 40.195 60.0257 39.374C60.5627 38.522 60.8317 37.638 60.8317 36.722C60.8317 35.586 60.4997 34.608 59.8357 33.787C59.1908 32.9554 58.3843 32.2628 57.4647 31.751C56.5147 31.183 55.2187 30.535 53.5747 29.809C51.6777 28.957 50.1447 28.184 48.9747 27.489C47.799 26.7901 46.7809 25.8551 45.9847 24.743C45.1637 23.575 44.7527 22.139 44.7527 20.434C44.7527 17.688 45.6847 15.636 47.5507 14.279C49.4487 12.921 51.9307 12.243 54.9977 12.243C57.4007 12.243 59.4877 12.748 61.2587 13.758C63.0617 14.768 63.9627 16.252 63.9627 18.208C63.9627 19.345 63.5667 20.292 62.7767 21.05C62.0177 21.776 61.0217 22.139 59.7887 22.139C59.0607 22.107 58.5077 21.933 58.1287 21.618C57.7487 21.271 57.5587 20.955 57.5587 20.671C57.5587 20.639 57.7647 20.529 58.1757 20.339C58.6187 20.15 58.9977 19.866 59.3137 19.487C59.6617 19.108 59.8357 18.587 59.8357 17.925C59.8357 16.757 59.3777 15.841 58.4607 15.178C57.5747 14.515 56.4367 14.184 55.0447 14.184C53.1167 14.184 51.6457 14.642 50.6347 15.557C49.6537 16.441 49.1637 17.546 49.1637 18.872C49.1637 19.976 49.4637 20.908 50.0647 21.665C50.6647 22.391 51.6297 23.117 52.9577 23.843C54.1093 24.4485 55.2799 25.0171 56.4677 25.548C58.4917 26.463 60.0887 27.3 61.2587 28.058C62.4634 28.8187 63.484 29.8376 64.2467 31.041C65.0687 32.271 65.4807 33.803 65.4807 35.633C65.4807 37.212 64.9747 38.648 63.9627 39.943C62.9827 41.205 61.6377 42.199 59.9307 42.925C58.2547 43.651 56.4047 44.014 54.3807 44.014ZM78.3937 43.636C76.2437 43.636 74.5357 42.988 73.2707 41.694C72.0057 40.4 71.3737 38.695 71.3737 36.58V27.82C71.3737 27 71.3417 26.4 71.2787 26.021C71.2477 25.643 71.0577 25.311 70.7087 25.027C70.3617 24.743 69.7767 24.601 68.9547 24.601C68.5747 24.601 68.2907 24.554 68.1007 24.459C67.9107 24.333 67.8167 24.064 67.8167 23.654C67.8167 23.464 67.8797 23.291 68.0067 23.134C68.1327 22.944 68.3227 22.834 68.5757 22.802C70.5677 22.517 72.2757 22.107 73.6977 21.57C74.1407 21.413 74.5037 21.318 74.7887 21.286H74.9307C75.4367 21.286 75.6907 21.586 75.6907 22.186V36.533C75.6907 37.985 76.1487 39.106 77.0657 39.895C77.9546 40.6424 79.0825 41.0455 80.2437 41.031C81.7297 41.031 82.9937 40.668 84.0377 39.942C85.0817 39.216 85.7777 38.49 86.1247 37.764V27.821C86.1247 27 86.0937 26.401 86.0307 26.021C85.9987 25.643 85.8087 25.311 85.4607 25.027C85.1127 24.743 84.5277 24.601 83.7057 24.601C83.3257 24.601 83.0417 24.554 82.8527 24.459C82.6627 24.333 82.5677 24.064 82.5677 23.654C82.5677 23.464 82.6307 23.291 82.7577 23.134C82.8837 22.944 83.0737 22.834 83.3267 22.802C85.3187 22.517 87.0267 22.107 88.4497 21.57C88.8917 21.413 89.2557 21.318 89.5397 21.286H89.6827C90.1887 21.286 90.4417 21.586 90.4417 22.186V38.57C90.4417 40.433 91.6907 41.364 94.1887 41.364C94.7257 41.364 94.9947 41.664 94.9947 42.264C94.9947 42.705 94.7257 42.974 94.1887 43.068L86.5517 43.589C86.3307 43.589 86.2037 43.51 86.1717 43.353C86.1417 43.226 86.1247 42.99 86.1247 42.643V39.99H86.0307C85.3047 40.6719 84.5612 41.3348 83.8007 41.978C83.2317 42.42 82.4887 42.799 81.5707 43.115C80.6857 43.462 79.6267 43.635 78.3937 43.635V43.636ZM97.5897 43.21C97.4792 43.2095 97.3703 43.1835 97.2714 43.1341C97.1726 43.0847 97.0864 43.0131 97.0197 42.925C96.8937 42.736 96.8297 42.515 96.8297 42.263C96.8617 41.853 96.9567 41.615 97.1147 41.553C97.2737 41.458 97.5577 41.41 97.9687 41.41C98.7907 41.41 99.3757 41.268 99.7237 40.984C100.072 40.7 100.262 40.368 100.293 39.99C100.357 39.61 100.388 39.011 100.388 38.19V27.347C100.388 26.527 100.357 25.927 100.293 25.547C100.262 25.169 100.072 24.837 99.7237 24.554C99.3757 24.27 98.7907 24.127 97.9687 24.127C97.5887 24.127 97.3047 24.08 97.1157 23.985C96.9257 23.859 96.8307 23.591 96.8307 23.18C96.8307 22.991 96.8937 22.817 97.0207 22.66C97.1467 22.47 97.3367 22.36 97.5897 22.328C99.6447 22.012 101.337 21.602 102.665 21.097C103.203 20.939 103.566 20.844 103.756 20.813H103.898C104.404 20.813 104.657 21.113 104.657 21.713V24.648H104.799C105.906 23.543 107.029 22.675 108.167 22.044C109.306 21.381 110.333 21.05 111.25 21.05C112.294 21.05 113.116 21.444 113.717 22.233C114.349 22.991 114.665 23.875 114.665 24.885C114.665 25.769 114.397 26.558 113.859 27.252C113.321 27.947 112.578 28.294 111.63 28.294C111.217 28.3012 110.809 28.2035 110.444 28.01C110.128 27.82 109.954 27.663 109.922 27.537C109.954 27.474 110.112 27.284 110.396 26.968C110.681 26.621 110.823 26.227 110.823 25.785C110.823 25.216 110.665 24.759 110.349 24.412C110.064 24.064 109.669 23.891 109.163 23.891C108.626 23.891 107.946 24.159 107.124 24.696C106.301 25.201 105.495 25.848 104.705 26.637V38.19C104.705 39.011 104.736 39.61 104.799 39.99C104.863 40.368 105.068 40.7 105.416 40.984C105.764 41.268 106.349 41.41 107.171 41.41H107.456C107.709 41.41 107.898 41.458 108.025 41.552C108.151 41.647 108.23 41.884 108.262 42.262C108.262 42.515 108.199 42.736 108.072 42.925C107.946 43.115 107.756 43.21 107.503 43.21C105.844 43.1199 104.184 43.0722 102.523 43.067C101.1 43.067 99.4557 43.116 97.5897 43.21ZM171.257 43.636C169.107 43.636 167.194 43.13 165.518 42.12C163.842 41.079 162.53 39.721 161.581 38.048C160.676 36.3927 160.204 34.5362 160.206 32.65C160.206 30.283 160.759 28.231 161.866 26.495C162.973 24.727 164.38 23.385 166.087 22.47C167.795 21.523 169.518 21.05 171.257 21.05C173.408 21.05 175.321 21.57 176.997 22.612C178.641 23.5887 179.986 24.997 180.886 26.684C181.822 28.3112 182.313 30.1566 182.309 32.034C182.309 34.402 181.74 36.47 180.602 38.238C179.495 39.974 178.088 41.315 176.38 42.262C174.673 43.178 172.965 43.636 171.257 43.636ZM171.257 41.884C173.408 41.884 174.973 40.968 175.953 39.137C176.965 37.307 177.471 34.939 177.471 32.035C177.471 29.32 176.949 27.111 175.906 25.405C174.894 23.67 173.344 22.802 171.257 22.802C169.076 22.802 167.495 23.702 166.514 25.501C165.534 27.3 165.044 29.651 165.044 32.556C165.044 35.27 165.55 37.512 166.562 39.279C167.574 41.016 169.139 41.884 171.257 41.884ZM194.261 43.872C192.711 43.872 191.383 43.304 190.276 42.168C189.17 41.031 188.616 39.406 188.616 37.291V23.37L185.865 23.465C185.773 23.4658 185.682 23.4447 185.599 23.4035C185.517 23.3623 185.445 23.3021 185.391 23.228C185.266 23.0467 185.2 22.8319 185.201 22.612C185.201 22.328 185.249 22.092 185.343 21.902C185.47 21.681 185.644 21.555 185.865 21.523C186.972 21.303 187.826 20.955 188.427 20.482C189.059 19.976 189.518 19.44 189.802 18.872C190.087 18.272 190.435 17.372 190.846 16.172C191.004 15.762 191.352 15.557 191.889 15.557C192.11 15.557 192.332 15.62 192.553 15.747C192.774 15.841 192.885 15.999 192.885 16.22L192.553 21.618L198.103 21.286H198.198C198.609 21.286 198.814 21.586 198.814 22.186C198.814 22.533 198.751 22.865 198.624 23.18C198.53 23.465 198.403 23.607 198.245 23.607L192.933 23.465V37.859C192.933 38.901 193.138 39.769 193.549 40.463C193.992 41.158 194.703 41.505 195.684 41.505C196.664 41.505 197.534 41.331 198.292 40.984C198.704 40.826 198.956 40.747 199.051 40.747C199.273 40.747 199.447 40.842 199.573 41.031C199.7 41.189 199.826 41.411 199.953 41.694C199.986 41.7684 200.002 41.8494 200 41.931C200 42.057 199.905 42.199 199.715 42.357C198.798 42.957 197.929 43.352 197.107 43.541C196.316 43.761 195.367 43.872 194.261 43.872ZM117.597 42.925C117.723 43.115 117.913 43.209 118.166 43.209C119.809 43.1188 121.453 43.0715 123.099 43.067C125.218 43.067 127.194 43.115 129.028 43.209C129.132 43.2114 129.235 43.1864 129.327 43.1366C129.418 43.0867 129.495 43.0138 129.55 42.925C129.676 42.735 129.739 42.515 129.739 42.262C129.708 41.884 129.629 41.647 129.502 41.552C129.407 41.458 129.218 41.41 128.933 41.41H128.648C127.605 41.41 126.862 41.331 126.419 41.173C125.976 41.016 125.676 40.731 125.518 40.321C125.36 39.879 125.281 39.169 125.281 38.191V23.463H130.309C130.419 23.4625 130.528 23.4366 130.626 23.3873C130.725 23.3381 130.811 23.2668 130.878 23.179C131.036 22.99 131.115 22.769 131.115 22.516C131.083 22.138 130.988 21.901 130.83 21.806C130.704 21.68 130.498 21.616 130.214 21.616H125.281V18.776C125.281 17.261 125.344 15.935 125.47 14.798C125.588 13.6565 125.961 12.5562 126.561 11.578C127.162 10.6 128.095 10.111 129.36 10.111C129.505 10.111 129.646 10.119 129.782 10.136C129.764 9.60553 129.799 9.0746 129.886 8.551C129.821 8.54922 129.756 8.54822 129.692 8.548C126.909 8.611 124.743 9.668 123.194 11.721C121.676 13.741 120.917 16.377 120.917 19.628V21.617H118.071C117.66 21.617 117.375 21.664 117.217 21.759C117.059 21.822 116.964 22.075 116.933 22.516C116.933 22.769 116.996 22.99 117.122 23.179C117.281 23.369 117.486 23.464 117.739 23.464H120.917V38.19C120.917 39.043 120.885 39.658 120.822 40.037C120.791 40.384 120.601 40.7 120.253 40.984C119.905 41.268 119.32 41.41 118.498 41.41C118.087 41.41 117.802 41.458 117.644 41.552C117.518 41.615 117.439 41.852 117.407 42.262C117.407 42.515 117.47 42.736 117.597 42.925Z" fill="#9C9C9C"/>
<path fill-rule="evenodd" clip-rule="evenodd" d="M142.952 9.865C142.951 10.5564 142.814 11.2409 142.549 11.8794C142.284 12.518 141.895 13.098 141.406 13.5865C140.917 14.0749 140.336 14.4622 139.697 14.7261C139.058 14.9901 138.373 15.1257 137.682 15.125C136.285 15.1261 134.946 14.5725 133.958 13.5862C132.969 12.5998 132.413 11.2613 132.412 9.865C132.412 9.17346 132.549 8.48879 132.814 7.85009C133.079 7.21139 133.468 6.63117 133.957 6.14255C134.446 5.65392 135.027 5.26647 135.666 5.00232C136.305 4.73816 136.99 4.60247 137.682 4.603C138.373 4.60234 139.058 4.73794 139.697 5.00205C140.337 5.26616 140.917 5.6536 141.407 6.14225C141.896 6.6309 142.285 7.21118 142.55 7.84994C142.815 8.4887 142.951 9.17342 142.952 9.865ZM137.682 12.495C138.027 12.4954 138.37 12.4277 138.689 12.2957C139.009 12.1637 139.299 11.9701 139.544 11.7259C139.789 11.4816 139.983 11.1916 140.116 10.8723C140.248 10.553 140.316 10.2107 140.317 9.865C140.317 9.51919 140.248 9.1768 140.116 8.85739C139.983 8.53798 139.789 8.24782 139.544 8.00348C139.3 7.75914 139.009 7.56542 138.69 7.43339C138.37 7.30136 138.028 7.2336 137.682 7.234C136.984 7.23373 136.314 7.51058 135.82 8.00371C135.326 8.49685 135.048 9.16594 135.047 9.864C135.048 10.5622 135.326 11.2316 135.82 11.7249C136.314 12.2183 136.984 12.4953 137.682 12.495ZM135.372 17.414V42.784C135.372 43.067 135.452 43.288 135.61 43.446C135.768 43.636 135.989 43.73 136.274 43.73C136.558 43.73 136.795 43.604 136.985 43.352C137.175 43.131 137.349 42.799 137.507 42.357C137.665 41.915 137.807 41.568 137.934 41.315H138.171C140.226 42.862 142.661 43.635 145.475 43.635C147.373 43.635 149.159 43.13 150.835 42.12C152.511 41.11 153.839 39.737 154.82 38C155.831 36.233 156.337 34.292 156.337 32.177C156.337 30.03 155.895 28.121 155.009 26.447C154.156 24.743 152.97 23.417 151.452 22.47C149.934 21.523 148.242 21.05 146.377 21.05C145.238 21.05 144.084 21.286 142.914 21.76C141.776 22.202 140.748 22.88 139.831 23.796H139.689V17.5C138.269 17.8685 136.775 17.8388 135.372 17.414ZM149.697 39.421C148.527 41.158 146.977 42.026 145.049 42.026C144.037 42.026 143.136 41.805 142.345 41.363C141.586 40.921 140.969 40.4 140.495 39.8C140.052 39.169 139.784 38.6 139.689 38.096V25.596C141.048 24.143 142.724 23.417 144.717 23.417C146.962 23.417 148.653 24.301 149.792 26.069C150.93 27.805 151.499 29.904 151.499 32.366C151.499 35.302 150.899 37.654 149.697 39.421ZM12.6997 0.366998C13.0352 0.127971 13.4368 -0.000488281 13.8487 -0.000488281C14.2606 -0.000488281 14.6623 0.127971 14.9977 0.366998C23.5577 6.471 27.4377 13.788 27.6827 24.287C27.7957 29.3 27.3127 33.89 25.8417 37.855C24.3317 41.823 21.6487 45.488 17.6987 48.584C17.4528 48.7751 17.1652 48.9055 16.8594 48.9646C16.5536 49.0237 16.2382 49.0098 15.9387 48.924C14.7287 48.577 14.5227 47.145 13.8487 46.253C13.1747 47.145 12.9707 48.576 11.7587 48.923C11.4594 49.0086 11.1442 49.0224 10.8386 48.9633C10.5329 48.9043 10.2456 48.774 9.99973 48.583C6.04973 45.488 3.36573 41.823 1.85673 37.855C0.386726 33.89 -0.0972739 29.3 0.0157261 24.287C0.259726 13.788 4.13973 6.47 12.6997 0.366998ZM17.1257 44.062C19.5977 41.792 21.0877 39.317 22.1397 36.47C23.4647 32.99 23.8467 29.144 23.7317 24.379C23.5417 16.192 21.6217 10.865 15.8087 5.919V20.387C18.0817 20.971 19.1017 23.197 19.1017 25.647C19.1017 28.099 18.0817 30.325 15.8087 30.909V42.746C15.8087 42.746 16.8647 43.719 17.1257 44.062ZM10.5377 44.062C8.06573 41.792 6.61073 39.317 5.55773 36.47C4.23373 32.99 3.85173 29.144 3.96773 24.379C4.15773 16.209 6.06673 10.859 11.8557 5.919V20.387C9.58273 20.971 8.56173 23.197 8.56173 25.647C8.56173 28.099 9.58173 30.325 11.8557 30.909V42.746C11.8557 42.746 10.7897 43.731 10.5377 44.062ZM13.8317 23.017C13.1336 23.0165 12.4638 23.2932 11.9697 23.7864C11.4756 24.2796 11.1975 24.9489 11.1967 25.647C11.1967 27.101 12.3767 28.278 13.8317 28.278C14.5299 28.2785 15.1996 28.0018 15.6938 27.5086C16.1879 27.0154 16.4659 26.3461 16.4667 25.648C16.4667 24.195 15.2867 23.017 13.8317 23.017Z" fill="#9C9C9C"/>
</svg>
