<svg width="141" height="52" viewBox="0 0 141 52" fill="none" xmlns="http://www.w3.org/2000/svg">
<path d="M11.8395 31.8407V38.9631C11.8395 42.5243 10.7223 43.8085 8.9467 43.8085C7.17113 43.8085 6.05492 42.5243 6.05492 38.9631V12.0376C6.05492 8.47638 7.17213 7.12219 8.94769 7.12219C10.7233 7.12219 11.8395 8.47638 11.8395 12.0376V17.3801H17.1163V12.5361C17.1163 4.55806 14.2744 -0.000244141 8.79507 -0.000244141C3.31477 -0.000244141 0.473877 4.55806 0.473877 12.5361V38.4645C0.473877 46.4426 3.31477 51.0023 8.79507 51.0023C14.2744 51.0023 17.1163 46.4426 17.1163 38.4645V31.8407H11.8395ZM32.8958 0.569719L38.5786 50.4324H32.9467L31.9821 41.3858H25.1332L24.1686 50.4324H19.0445L24.7272 0.569719H32.8958ZM28.4819 9.40204L25.8435 34.619H31.221L28.5836 9.40064H28.4829L28.4819 9.40204ZM58.5188 50.4324H52.836C52.5317 49.1496 52.3282 48.3654 52.3282 44.3056V36.4704C52.3282 31.8407 51.212 30.1308 48.6754 30.1308H46.7472V50.4324H41.1661V0.569719H49.5891C55.3726 0.569719 57.8584 4.3452 57.8584 12.039V15.9559C57.8584 21.0842 56.6913 24.3611 54.2056 25.9996C56.9966 27.7795 57.9093 31.4835 57.9093 36.6846V44.377C57.9093 46.7997 57.9612 48.5796 58.5188 50.4324ZM49.4365 7.69215H46.7472V23.0083H48.9287C51.0095 23.0083 52.2774 21.727 52.2774 17.7372V12.8218C52.2774 9.2606 51.4155 7.69215 49.4365 7.69215ZM75.5282 0.569719L81.211 50.4324H75.5791L74.6155 41.3858H67.7656L66.8021 50.4324H61.6769L67.3597 0.569719H75.5282ZM71.1143 9.40204L68.4759 34.619H73.8544L71.216 9.40064H71.1143V9.40204ZM86.3741 0.569719H80.7422L86.2215 50.4324H94.5427L100.022 0.569719H94.8978L90.6863 41.2415H90.5846L86.3741 0.569719ZM113.405 0.569719L119.087 50.4324H113.455L112.492 41.3858H105.642L104.677 50.4324H99.5532L105.236 0.569719H113.405ZM108.991 9.40204L106.352 34.619H111.731L109.092 9.40064H108.991V9.40204ZM134.391 50.4324H140.125V0.569719H135.152V30.415H135.05L129.419 0.569719H122.417V50.4324H127.44V14.316H127.541L134.391 50.4324Z" fill="#9C9C9C"/>
</svg>
